<svg xmlns="http://www.w3.org/2000/svg" xmlns:xlink="http://www.w3.org/1999/xlink" width="217" height="122.08" viewBox="0 0 217 122.08"><defs><clipPath id="a"><rect width="217" height="122.08" fill="#032339"/></clipPath></defs><g transform="translate(0 0.001)"><g transform="translate(0 -0.001)" clip-path="url(#a)"><path d="M6.69,88.394q4.327.1,6.517,2.43T15.4,97.87q0,4.727-2.19,7.049T6.69,107.347H.133V88.394Zm-.9,17.414a12.4,12.4,0,0,0,3.517-.439,5.609,5.609,0,0,0,2.43-1.394,5.736,5.736,0,0,0,1.407-2.468,14.912,14.912,0,0,0,0-7.274,5.742,5.742,0,0,0-1.407-2.468A5.633,5.633,0,0,0,9.3,90.371a12.45,12.45,0,0,0-3.517-.437H1.938v15.874Z" transform="translate(0.017 11.123)" fill="#032339"/><path d="M16.43,95.23A3.919,3.919,0,0,1,17.585,93.8a4.885,4.885,0,0,1,1.711-.823,8.354,8.354,0,0,1,2.177-.266,9.534,9.534,0,0,1,1.806.173,4.362,4.362,0,0,1,1.619.65,3.543,3.543,0,0,1,1.167,1.341,4.84,4.84,0,0,1,.453,2.244v7.272a.88.88,0,0,0,.981,1.01,1.309,1.309,0,0,0,.531-.106V106.7c-.195.036-.367.062-.517.08a5,5,0,0,1-.571.026,2.518,2.518,0,0,1-1.022-.172,1.369,1.369,0,0,1-.6-.491,1.811,1.811,0,0,1-.278-.757,6.535,6.535,0,0,1-.066-.969h-.053a11.122,11.122,0,0,1-.916,1.181,4.58,4.58,0,0,1-1.035.863,4.709,4.709,0,0,1-1.3.53,7.114,7.114,0,0,1-1.738.187,6.832,6.832,0,0,1-1.792-.226,4.012,4.012,0,0,1-1.459-.716,3.425,3.425,0,0,1-.983-1.249,4.137,4.137,0,0,1-.359-1.791,3.534,3.534,0,0,1,.638-2.243,4,4,0,0,1,1.685-1.235,9.579,9.579,0,0,1,2.362-.6q1.316-.174,2.668-.332a9.268,9.268,0,0,0,.93-.134,1.616,1.616,0,0,0,.663-.278,1.286,1.286,0,0,0,.411-.545,2.346,2.346,0,0,0,.146-.9,3.07,3.07,0,0,0-.278-1.394,2.215,2.215,0,0,0-.77-.862,3.132,3.132,0,0,0-1.142-.438,7.707,7.707,0,0,0-1.394-.119,4.223,4.223,0,0,0-2.6.757A2.96,2.96,0,0,0,17.6,97.3H15.925a5.614,5.614,0,0,1,.5-2.07m8.363,4.088a.958.958,0,0,1-.61.426,6.147,6.147,0,0,1-.8.185q-1.062.186-2.19.333a11.949,11.949,0,0,0-2.057.437,4.042,4.042,0,0,0-1.528.836,2,2,0,0,0-.6,1.553,2.432,2.432,0,0,0,.252,1.129,2.745,2.745,0,0,0,.677.849,2.97,2.97,0,0,0,.983.545,3.581,3.581,0,0,0,1.142.185A5.735,5.735,0,0,0,21.9,105.5a4.506,4.506,0,0,0,1.527-.849,4.043,4.043,0,0,0,1.421-3.159V99.318Z" transform="translate(1.93 11.665)" fill="#032339"/><path d="M44.353,106.76v-2.468H44.3a4.736,4.736,0,0,1-1.925,2.109,5.478,5.478,0,0,1-2.8.731,6.094,6.094,0,0,1-2.217-.358,3.7,3.7,0,0,1-1.487-1.022,4.131,4.131,0,0,1-.835-1.619,8.115,8.115,0,0,1-.265-2.176V93.063h1.672v8.919A4.458,4.458,0,0,0,37.3,104.8a3.511,3.511,0,0,0,2.8.956,3.533,3.533,0,0,0,1.859-.464,3.967,3.967,0,0,0,1.274-1.234,5.588,5.588,0,0,0,.743-1.766,8.7,8.7,0,0,0,.239-2.031V93.063h1.672v13.7Z" transform="translate(4.375 11.71)" fill="#032339"/><path d="M49.1,93.108V95.47h.053a4.01,4.01,0,0,1,1.7-2,4.993,4.993,0,0,1,2.682-.757,6.747,6.747,0,0,1,2.4.372,3.818,3.818,0,0,1,1.554,1.048,3.931,3.931,0,0,1,.823,1.659,9.364,9.364,0,0,1,.239,2.2V106.8H56.882V98.257a7.963,7.963,0,0,0-.159-1.634,3.488,3.488,0,0,0-.557-1.314,2.716,2.716,0,0,0-1.075-.875,3.93,3.93,0,0,0-1.686-.319,4.265,4.265,0,0,0-1.791.358,3.889,3.889,0,0,0-1.327.982,4.56,4.56,0,0,0-.85,1.486,6.1,6.1,0,0,0-.331,1.872v7.99H47.433v-13.7Z" transform="translate(5.968 11.665)" fill="#032339"/><path d="M74.642,95.775a2.721,2.721,0,0,0-.784-.942,3.3,3.3,0,0,0-1.128-.545,5.218,5.218,0,0,0-1.353-.171,5.486,5.486,0,0,0-1.129.119,3.468,3.468,0,0,0-1.048.4,2.27,2.27,0,0,0-.77.731,2.008,2.008,0,0,0-.293,1.115,1.565,1.565,0,0,0,.279.942,2.469,2.469,0,0,0,.7.651,4.5,4.5,0,0,0,.93.438c.337.116.645.208.928.278l2.231.5a6.412,6.412,0,0,1,1.42.386,4.562,4.562,0,0,1,1.247.73,3.559,3.559,0,0,1,.889,1.115,3.357,3.357,0,0,1,.344,1.566,3.436,3.436,0,0,1-.5,1.9,4.117,4.117,0,0,1-1.288,1.274,5.478,5.478,0,0,1-1.765.7,9.2,9.2,0,0,1-1.938.212,6.291,6.291,0,0,1-3.916-1.142,4.847,4.847,0,0,1-1.712-3.663h1.673a3.3,3.3,0,0,0,1.234,2.562,4.476,4.476,0,0,0,2.8.862,6.261,6.261,0,0,0,1.26-.133,3.98,3.98,0,0,0,1.208-.451,2.893,2.893,0,0,0,.916-.808,2,2,0,0,0,.358-1.208,1.934,1.934,0,0,0-.251-1.023,2.2,2.2,0,0,0-.678-.689,4.275,4.275,0,0,0-.969-.465q-.544-.186-1.1-.319l-2.15-.477a11.941,11.941,0,0,1-1.513-.492,4.775,4.775,0,0,1-1.208-.69,2.871,2.871,0,0,1-.809-1.009,3.329,3.329,0,0,1-.293-1.473,3.283,3.283,0,0,1,.465-1.778,3.65,3.65,0,0,1,1.207-1.2,5.673,5.673,0,0,1,1.661-.663,8.068,8.068,0,0,1,1.818-.212,6.707,6.707,0,0,1,1.924.266,4.41,4.41,0,0,1,1.566.823,4.031,4.031,0,0,1,1.075,1.379,4.933,4.933,0,0,1,.451,1.939H74.961a3.176,3.176,0,0,0-.319-1.341" transform="translate(8.302 11.665)" fill="#032339"/><path d="M79.325,102.278a5.159,5.159,0,0,0,.808,1.739,4.652,4.652,0,0,0,1.407,1.274,3.944,3.944,0,0,0,2.044.5,4.068,4.068,0,0,0,2.867-.957,5.023,5.023,0,0,0,1.433-2.548h1.673a6.7,6.7,0,0,1-1.952,3.61,5.821,5.821,0,0,1-4.021,1.273,6.369,6.369,0,0,1-2.8-.571,5.15,5.15,0,0,1-1.926-1.566,6.824,6.824,0,0,1-1.1-2.309,10.512,10.512,0,0,1-.359-2.774,9.957,9.957,0,0,1,.359-2.655,7.163,7.163,0,0,1,1.1-2.324,5.538,5.538,0,0,1,1.926-1.645,5.916,5.916,0,0,1,2.8-.624,5.421,5.421,0,0,1,4.712,2.4,7.168,7.168,0,0,1,1.048,2.468,10.751,10.751,0,0,1,.266,2.828H79.073a7.441,7.441,0,0,0,.252,1.871m8.282-5.11a4.975,4.975,0,0,0-.864-1.552,4.286,4.286,0,0,0-1.353-1.089,3.881,3.881,0,0,0-1.8-.411,3.942,3.942,0,0,0-1.832.411A4.286,4.286,0,0,0,80.4,95.616a5.437,5.437,0,0,0-.891,1.566A7.647,7.647,0,0,0,79.073,99h8.866a6.08,6.08,0,0,0-.332-1.832" transform="translate(9.738 11.665)" fill="#032339"/><path d="M98.716,94.991a3.645,3.645,0,0,0-2.6-.875,4.233,4.233,0,0,0-2.1.5,4.594,4.594,0,0,0-1.5,1.327,5.989,5.989,0,0,0-.9,1.871,7.635,7.635,0,0,0,0,4.274,6.007,6.007,0,0,0,.9,1.872,4.581,4.581,0,0,0,1.5,1.327,4.233,4.233,0,0,0,2.1.5,3.709,3.709,0,0,0,1.46-.293,3.9,3.9,0,0,0,1.22-.809,4.31,4.31,0,0,0,.877-1.234,4.567,4.567,0,0,0,.423-1.567h1.673a6.317,6.317,0,0,1-1.831,3.889,5.365,5.365,0,0,1-3.823,1.394,6.438,6.438,0,0,1-2.774-.57,5.891,5.891,0,0,1-2.03-1.554,6.768,6.768,0,0,1-1.249-2.3,9.451,9.451,0,0,1,0-5.6,6.773,6.773,0,0,1,1.249-2.3,6.049,6.049,0,0,1,2.03-1.566,6.3,6.3,0,0,1,2.774-.584,5.956,5.956,0,0,1,3.73,1.169,4.984,4.984,0,0,1,1.818,3.531H99.99a4.611,4.611,0,0,0-1.274-2.416" transform="translate(11.278 11.665)" fill="#032339"/><path d="M111.126,93.293a6.05,6.05,0,0,1,2.03,1.566,6.773,6.773,0,0,1,1.249,2.3,9.451,9.451,0,0,1,0,5.6,6.778,6.778,0,0,1-1.249,2.3,5.874,5.874,0,0,1-2.03,1.553,7.014,7.014,0,0,1-5.548,0,5.864,5.864,0,0,1-2.03-1.553,6.779,6.779,0,0,1-1.249-2.3,9.427,9.427,0,0,1,0-5.6,6.773,6.773,0,0,1,1.249-2.3,6.038,6.038,0,0,1,2.03-1.566,6.877,6.877,0,0,1,5.548,0m-4.871,1.327a4.57,4.57,0,0,0-1.5,1.327,6.009,6.009,0,0,0-.9,1.872,7.662,7.662,0,0,0,0,4.274,5.973,5.973,0,0,0,.9,1.87,4.557,4.557,0,0,0,1.5,1.327,4.613,4.613,0,0,0,4.195,0,4.58,4.58,0,0,0,1.5-1.327,6,6,0,0,0,.9-1.87,7.636,7.636,0,0,0,0-4.274,6.032,6.032,0,0,0-.9-1.872,4.593,4.593,0,0,0-1.5-1.327,4.613,4.613,0,0,0-4.195,0" transform="translate(12.817 11.665)" fill="#032339"/><rect width="1.672" height="18.953" transform="translate(130.169 99.517)" fill="#032339"/><path d="M128.6,93.293a6.049,6.049,0,0,1,2.03,1.566,6.774,6.774,0,0,1,1.249,2.3,9.451,9.451,0,0,1,0,5.6,6.779,6.779,0,0,1-1.249,2.3,5.874,5.874,0,0,1-2.03,1.553,7.013,7.013,0,0,1-5.548,0,5.864,5.864,0,0,1-2.03-1.553,6.779,6.779,0,0,1-1.249-2.3,9.427,9.427,0,0,1,0-5.6,6.773,6.773,0,0,1,1.249-2.3,6.038,6.038,0,0,1,2.03-1.566,6.877,6.877,0,0,1,5.548,0m-4.871,1.327a4.57,4.57,0,0,0-1.5,1.327,6.009,6.009,0,0,0-.9,1.872,7.662,7.662,0,0,0,0,4.274,5.973,5.973,0,0,0,.9,1.87,4.557,4.557,0,0,0,1.5,1.327,4.613,4.613,0,0,0,4.195,0,4.58,4.58,0,0,0,1.5-1.327,6,6,0,0,0,.9-1.87,7.635,7.635,0,0,0,0-4.274,6.032,6.032,0,0,0-.9-1.872,4.592,4.592,0,0,0-1.5-1.327,4.613,4.613,0,0,0-4.195,0" transform="translate(15.016 11.665)" fill="#032339"/><path d="M136.183,105.544a4.734,4.734,0,0,1-.145,1.155,4.1,4.1,0,0,1-.438,1.062,3.437,3.437,0,0,1-.731.863,2.662,2.662,0,0,1-1.022.53v-1.143a1.2,1.2,0,0,0,.557-.4,2.917,2.917,0,0,0,.4-.652,3.173,3.173,0,0,0,.225-.742,2.639,2.639,0,0,0,.039-.678h-1.115v-2.815h2.229Z" transform="translate(16.84 12.926)" fill="#032339"/><path d="M154.818,93.293a6.05,6.05,0,0,1,2.03,1.566,6.773,6.773,0,0,1,1.249,2.3,9.451,9.451,0,0,1,0,5.6,6.779,6.779,0,0,1-1.249,2.3,5.874,5.874,0,0,1-2.03,1.553,7.013,7.013,0,0,1-5.548,0,5.864,5.864,0,0,1-2.03-1.553,6.779,6.779,0,0,1-1.249-2.3,9.427,9.427,0,0,1,0-5.6,6.773,6.773,0,0,1,1.249-2.3,6.039,6.039,0,0,1,2.03-1.566,6.877,6.877,0,0,1,5.548,0m-4.871,1.327a4.57,4.57,0,0,0-1.5,1.327,6.009,6.009,0,0,0-.9,1.872,7.662,7.662,0,0,0,0,4.274,5.973,5.973,0,0,0,.9,1.87,4.557,4.557,0,0,0,1.5,1.327,4.613,4.613,0,0,0,4.195,0,4.58,4.58,0,0,0,1.5-1.327,6,6,0,0,0,.9-1.87,7.635,7.635,0,0,0,0-4.274,6.032,6.032,0,0,0-.9-1.872,4.593,4.593,0,0,0-1.5-1.327,4.613,4.613,0,0,0-4.195,0" transform="translate(18.315 11.665)" fill="#032339"/><rect width="1.672" height="18.953" transform="translate(179.358 99.517)" fill="#032339"/><path d="M169.25,93.523v1.406h-2.788v9.237a3,3,0,0,0,.226,1.289q.225.464,1.128.517a13.308,13.308,0,0,0,1.433-.079V107.3c-.249,0-.5.01-.744.028s-.494.026-.743.026a2.47,2.47,0,0,1-2.972-3.052V94.929H162.4V93.523h2.39V89.408h1.672v4.115Z" transform="translate(20.433 11.25)" fill="#032339"/><path d="M172.17,93.085V96.3h.053a5.258,5.258,0,0,1,1.978-2.574,5.171,5.171,0,0,1,3.2-.824v1.674a5.043,5.043,0,0,0-2.07.3,4.584,4.584,0,0,0-2.655,2.6,5.282,5.282,0,0,0-.372,2v7.3h-1.672v-13.7Z" transform="translate(21.468 11.688)" fill="#032339"/><path d="M178.945,102.278a5.159,5.159,0,0,0,.808,1.739,4.652,4.652,0,0,0,1.407,1.274,3.944,3.944,0,0,0,2.044.5,4.068,4.068,0,0,0,2.867-.957,5.023,5.023,0,0,0,1.433-2.548h1.673a6.7,6.7,0,0,1-1.952,3.61,5.821,5.821,0,0,1-4.021,1.273,6.369,6.369,0,0,1-2.8-.571,5.141,5.141,0,0,1-1.926-1.566,6.824,6.824,0,0,1-1.1-2.309,10.512,10.512,0,0,1-.359-2.774,9.956,9.956,0,0,1,.359-2.655,7.163,7.163,0,0,1,1.1-2.324,5.528,5.528,0,0,1,1.926-1.645,5.917,5.917,0,0,1,2.8-.624,5.421,5.421,0,0,1,4.712,2.4,7.169,7.169,0,0,1,1.048,2.468,10.752,10.752,0,0,1,.266,2.828H178.693a7.44,7.44,0,0,0,.252,1.871m8.282-5.11a5,5,0,0,0-.864-1.552,4.286,4.286,0,0,0-1.353-1.089,3.881,3.881,0,0,0-1.8-.411,3.942,3.942,0,0,0-1.832.411,4.286,4.286,0,0,0-1.353,1.089,5.437,5.437,0,0,0-.891,1.566A7.647,7.647,0,0,0,178.693,99h8.866a6.08,6.08,0,0,0-.332-1.832" transform="translate(22.272 11.665)" fill="#032339"/><rect width="2.23" height="2.815" transform="translate(214.743 115.656)" fill="#032339"/><rect width="0.5" height="85.83" transform="translate(85.588 0.002)" fill="#032339"/><path d="M85.583,10.98c.508,0,1.3.084,2,.084.678,0,1.185-.084,1.721-.084.226,0,.453.056.453.17,0,.169-.283.169-.453.225-1.073.225-1.073.847-1.1,1.863-.027,1.75-.027,2.822-.027,4.093v1.383c0,1.976.423,3.021,1.128,3.782A4.517,4.517,0,0,0,92.5,23.739c2.822,0,4.233-1.581,4.233-5.957V15.948c0-3.839-.113-4.234-.733-4.432-.2-.056-.4-.083-.593-.141-.2-.028-.4-.141-.4-.225,0-.114.17-.17.424-.17.45,0,.874.084,1.551.084.453,0,1.045-.056,1.581-.056.283,0,.509.028.509.142s-.141.2-.481.253c-.875.225-1.073.592-1.128,1.468-.086,1.354-.114,2.765-.114,4.178-.028,3.019-.339,4.826-1.637,6.068a5.151,5.151,0,0,1-3.7,1.468,5.928,5.928,0,0,1-3.528-.931c-1.354-1.017-1.891-2.372-1.891-5.363-.027-1.835,0-3.783-.056-5.532-.028-.96-.2-1.158-.988-1.355-.113-.028-.564-.141-.564-.253,0-.2.368-.17.593-.17" transform="translate(10.693 1.382)" fill="#032339"/><path d="M99.116,10.955c.536,0,1.412.113,2.455.113.113,0,.311.226.509.481,1.354,1.75,6.633,7.791,8.58,9.963.086.084.142,0,.142-.084,0-.762,0-6.633-.029-8.412-.027-1.213-.366-1.412-1.439-1.609-.253-.028-.451-.141-.451-.253,0-.142.254-.17.48-.17.4,0,1.187.084,1.694.084.592,0,1.072-.084,1.581-.084.31,0,.451.056.451.17s-.226.225-.48.281a1.285,1.285,0,0,0-1.1,1.242c-.084.9-.141,5.335-.141,7.283,0,1.92-.057,2.822,0,3.9.028.423-.029.648-.2.648-.113,0-.367-.253-.734-.7s-6.238-7.536-9.174-10.9c-.056-.056-.2-.084-.2,0v8.581c0,1.779.2,2.146,1.382,2.371.311.057.509.17.509.253,0,.114-.056.17-.509.17-.366,0-1.128-.113-1.806-.113-.65,0-1.326.113-1.524.113s-.537,0-.537-.2c0-.113.283-.2.509-.225.959-.17,1.157-.565,1.27-1.92.056-.959.2-7.339.2-8.637,0-1.129-.113-1.354-.338-1.553a2.231,2.231,0,0,0-1.073-.4c-.339-.056-.481-.141-.481-.225,0-.114.17-.17.453-.17" transform="translate(12.403 1.379)" fill="#032339"/><path d="M113.6,10.98c.62,0,1.156.084,1.863.084.564,0,1.609-.084,2-.084.169,0,.423.056.423.17s-.17.2-.48.253c-.763.141-.959.4-.988,1.1-.056,1.073-.084,3.416-.084,4.828,0,3.048-.028,4.769.028,5.362.056.706.226.96,1.187,1.129.253.086.4.141.4.254,0,.141-.254.169-.509.169-.339,0-1.383-.084-2.032-.084-.565,0-1.3.113-1.835.113-.226,0-.451-.056-.451-.17s.169-.2.48-.253c.818-.113,1.1-.48,1.129-1.637.027-1.214.027-3.049.027-4.855,0-2.2-.027-4.912-.055-5.138-.086-.593-.537-.734-1.129-.847-.2-.028-.4-.141-.4-.225,0-.142.254-.17.424-.17" transform="translate(14.232 1.383)" fill="#032339"/><path d="M118.791,10.98c.367,0,1.411.084,1.891.084.733,0,1.242-.084,1.665-.084.283,0,.508.056.508.17,0,.084-.2.2-.451.225-.678.113-.706.339-.648.678a6.653,6.653,0,0,0,.366.987c.453,1.157,2.964,7.509,3.558,8.835.084.113.141.113.169.057.367-.735,3.133-7.17,3.5-8.159A5.851,5.851,0,0,0,129.911,12c0-.4-.366-.48-1.073-.62-.225-.056-.4-.141-.4-.225q0-.171.509-.17c.311,0,1.073.084,1.751.084.733,0,.987-.056,1.411-.056.311,0,.423.056.423.142s-.084.2-.423.253c-.734.141-1.242.508-1.948,1.92-.422.875-1.778,4.037-3.867,8.835-.423,1.015-.733,1.721-.847,2.088-.056.2-.169.423-.281.423s-.17-.113-.256-.367c-.761-2.174-4.12-10.529-4.769-11.827a1.733,1.733,0,0,0-1.3-1.073c-.281-.056-.536-.141-.536-.283s.31-.141.48-.141" transform="translate(14.885 1.383)" fill="#032339"/><path d="M134.148,11.064c1.214,0,3.839-.057,4.742-.057.82,0,1.524-.027,1.722-.027.113,0,.2.2.225.339.028.225.113,1.213.17,1.609.028.225-.029.4-.142.4-.083,0-.169-.142-.253-.339-.423-.96-.79-1.3-1.13-1.355a29.859,29.859,0,0,0-4.177-.084c-.142,0-.225.056-.225.311,0,1.157-.029,4.375,0,5,0,.113.056.225.169.225h2.428a4.531,4.531,0,0,0,1.834-.225c.141-.084.311-.254.536-.818.057-.17.142-.339.254-.339.084,0,.113.113.113.4,0,.113-.113.959-.142,1.27a9.856,9.856,0,0,0,0,1.27c.029.2-.027.424-.111.424-.114,0-.17-.141-.311-.481s-.283-.79-.621-.847a22.644,22.644,0,0,0-4.036-.141c-.056,0-.17.084-.17.281-.027.678.057,4.122.086,4.546.055.789.084,1.156.564,1.213.283.028,1.1.084,2.287.084,2.06,0,2.258-.113,2.6-.366a5.436,5.436,0,0,0,.96-1.326c.113-.227.226-.368.311-.368.113,0,.141.2,0,.593-.084.225-.423,1.411-.481,1.693a.46.46,0,0,1-.4.311c-2.4,0-4.658-.084-6.69-.084-.733,0-1.693.084-1.947.084s-.565,0-.565-.17c0-.113.225-.2.451-.225.762-.142,1.1-.367,1.157-1.214.084-1.355.084-3.839.084-5.957V12.928c0-1.129-.338-1.355-1.1-1.524-.253-.056-.4-.141-.4-.226,0-.113.17-.2.339-.2.565,0,1.327.084,1.863.084" transform="translate(16.576 1.383)" fill="#032339"/><path d="M145.669,20.891a12.213,12.213,0,0,0,.114,2.146c.028.451.366.677.988.789.2.029.45.114.45.226s-.254.2-.508.2c-.48,0-1.326-.086-2.117-.086s-1.214.086-1.638.086c-.338,0-.48-.086-.48-.17,0-.113.169-.2.48-.254.79-.141,1.017-.366,1.073-1.129.084-1.185.084-2.652.084-5.673,0-2.88,0-4.009-.028-4.573-.028-.62-.225-.932-1.1-1.073-.226-.027-.424-.141-.424-.226,0-.113.254-.169.424-.169.31,0,.847.086,1.609.086.987,0,1.947-.113,2.935-.113a5.014,5.014,0,0,1,3.077.79,2.845,2.845,0,0,1,1.355,2.427,3.3,3.3,0,0,1-2.569,3.161c-.17.056-.17.141-.056.367a37.014,37.014,0,0,0,2.484,3.669A14.322,14.322,0,0,0,153.4,23.15a2.677,2.677,0,0,0,1.75.79c.254,0,.2.169,0,.281a2.291,2.291,0,0,1-1.072.17,3.865,3.865,0,0,1-3.105-1.637,51.028,51.028,0,0,1-3.161-4.348,1.84,1.84,0,0,0-.931-.478,9.21,9.21,0,0,0-1.017-.057c-.114,0-.2.2-.2.4Zm.254-9.315c-.056.028-.141.17-.17.564-.028.339-.084,4.517-.084,4.856,0,.113.056.423.2.423.339.028.79.028,1.242.028a4.23,4.23,0,0,0,2-.537,2.676,2.676,0,0,0,1.243-2.314,3.192,3.192,0,0,0-.762-2.118,3.393,3.393,0,0,0-2.569-1.073,3.733,3.733,0,0,0-1.1.17" transform="translate(17.926 1.38)" fill="#032339"/><path d="M155.371,21.744a3.318,3.318,0,0,0,1.073,1.751,3.631,3.631,0,0,0,2.117.706,2.538,2.538,0,0,0,2.767-2.6c0-1.524-.848-2.287-2.739-3.416-1.609-.959-3.077-2.118-3.077-3.98a3.313,3.313,0,0,1,1.355-2.682,4.9,4.9,0,0,1,2.852-.848,6.551,6.551,0,0,1,2.314.453.4.4,0,0,1,.283.283,9.677,9.677,0,0,0,.169,1.581c.057.31.029.508-.083.508s-.2-.142-.284-.424a2.8,2.8,0,0,0-.931-1.383,2.886,2.886,0,0,0-1.835-.621,2.309,2.309,0,0,0-2.427,2.485,3.007,3.007,0,0,0,1.412,2.4c.818.537,1.552,1.017,2.37,1.5a4.1,4.1,0,0,1,2.231,3.3c0,2.4-2.2,3.868-4.46,3.868A7.535,7.535,0,0,1,155.483,24c-.283-.084-.338-.451-.423-.79-.028-.367-.113-.82-.169-1.524-.028-.254,0-.48.113-.48s.254.2.367.536" transform="translate(19.487 1.345)" fill="#032339"/><path d="M164.6,10.98c.62,0,1.156.084,1.863.084.564,0,1.609-.084,2-.084.169,0,.423.056.423.17s-.17.2-.48.253c-.763.141-.959.4-.988,1.1-.056,1.073-.084,3.416-.084,4.828,0,3.048-.028,4.769.028,5.362.056.706.226.96,1.187,1.129.253.086.4.141.4.254,0,.141-.254.169-.509.169-.339,0-1.382-.084-2.032-.084-.565,0-1.3.113-1.835.113-.226,0-.451-.056-.451-.17s.169-.2.48-.253c.818-.113,1.1-.48,1.129-1.637.027-1.214.027-3.049.027-4.855,0-2.2-.027-4.912-.055-5.138-.086-.593-.537-.734-1.129-.847-.2-.028-.4-.141-.4-.225,0-.142.253-.17.423-.17" transform="translate(20.649 1.383)" fill="#032339"/><path d="M170.268,10.732c.084-.057.141,0,.254.113a1.564,1.564,0,0,0,.706.17c.311.028,2.6.084,4.911.084h3.811a4.744,4.744,0,0,0,1.779-.2c.141-.086.283-.17.338-.114s.057.142.028.254a7.954,7.954,0,0,0-.141,2.06c0,.311-.056.536-.169.536-.084,0-.169-.2-.2-.339a5.57,5.57,0,0,0-.423-1.27c-.17-.226-.225-.339-.931-.339h-3.3c-.113,0-.169.254-.169.367l-.056,7.424c0,1.243,0,2.739.084,3.388.084.621.4.847,1.129.987.311.057.48.17.48.283s-.339.17-.536.17c-.678,0-1.157-.113-2.005-.113-1.156,0-1.664.113-2,.113-.4,0-.536-.084-.536-.17,0-.113.2-.2.481-.254,1.044-.141,1.184-.394,1.213-1.467.084-2.118.142-10.133.142-10.36,0-.113-.028-.338-.142-.367h-1.778c-.931,0-1.609.029-1.891.056-.423.056-.762.34-.988,1.469-.055.253-.141.4-.225.4-.114,0-.17-.17-.17-.424,0-.451.226-1.412.226-2.145a.456.456,0,0,1,.084-.311" transform="translate(21.383 1.348)" fill="#032339"/><path d="M187.642,11.243c.029.086.311,1.045.593,1.779,1.355,3.558,2.371,5.9,4.008,9.851.424.988.818,1.355,1.666,1.5.253.056.422.17.422.254,0,.113-.169.17-.45.17-.621,0-1.073-.114-2.231-.142-.818,0-1.382.114-1.806.114-.253,0-.481-.057-.481-.17,0-.142.254-.226.509-.254.734-.141,1.073-.367.818-.959-.226-.509-.79-2.005-1.553-3.867a.477.477,0,0,0-.339-.254c-.508-.028-3.811-.028-4.2,0-.086,0-.2.084-.283.254-.34.762-.9,2.117-1.243,2.963-.281.762-.281,1.215-.084,1.468.142.254.451.311.9.423.225.056.366.142.366.226,0,.113-.169.17-.45.17-.453,0-1.243-.114-1.949-.114-.592,0-.96.084-1.524.084-.225,0-.4-.056-.4-.17s.254-.2.481-.253c1.128-.225,1.355-.762,2-2.088.62-1.214,2.6-5.872,3.923-9.061a1.275,1.275,0,0,0,.113-.621.345.345,0,0,1,.084-.254,3.156,3.156,0,0,0,.706-.987c.057-.17.142-.254.225-.254.114,0,.142.084.17.2m-1.862-3.98a32.9,32.9,0,0,1,1.721,2.852c.084.141.084.253.028.253a.667.667,0,0,1-.311-.169c-.875-.82-1.834-1.835-2.54-2.625-.17-.17-.2-.254-.2-.339s.114-.141.339-.141a2.349,2.349,0,0,1,.96.169m2.963,11.15c-.959-2.485-1.609-4.008-1.891-4.714-.056-.17-.113-.226-.2-.028-.678,1.5-1.553,3.81-1.891,4.8-.028.114,0,.142.084.142.4.027,1.015.027,1.863.027.453,0,1.693,0,1.92-.027.113,0,.142-.114.113-.2" transform="translate(22.639 0.894)" fill="#032339"/><path d="M85.641,42.73c-.242,0-.484-.054-.484-.161,0-.134.189-.188.457-.241.832-.108.967-.269,1.047-.967.054-.457.054-1.208.054-4.725,0-3.6,0-4.564-.027-4.912-.027-.725-.188-1.075-1.047-1.155-.295-.054-.43-.134-.43-.241s.215-.189.376-.189c.107,0,1.047.054,1.584.054,1.047,0,2.04-.215,3.088-.215A9.255,9.255,0,0,1,94.983,31a5.993,5.993,0,0,1,3.168,5.369c0,3.946-2.9,5.744-5.583,6.362a9.414,9.414,0,0,1-1.988.162c-.509,0-.939-.054-1.5-.081-.672-.027-1.262-.108-1.907-.108-.59,0-1.343.027-1.53.027m2.926-12.161a.566.566,0,0,0-.268.51c-.054.859-.108,1.369-.108,4.94,0,2.04.027,3.14.108,4.188.081,1.315.215,1.5.617,1.745a5.217,5.217,0,0,0,2.067.51,6.154,6.154,0,0,0,2.443-.457,5.558,5.558,0,0,0,3.034-5.369,5.8,5.8,0,0,0-1.853-4.671,6.8,6.8,0,0,0-4.564-1.557,5.873,5.873,0,0,0-1.476.161" transform="translate(10.714 3.773)" fill="#032339"/><path d="M100.96,30.178c1.155,0,3.651-.054,4.51-.054.779,0,1.45-.027,1.638-.027.107,0,.188.188.215.322.027.215.107,1.154.161,1.531.027.214-.027.376-.134.376-.081,0-.162-.135-.242-.323-.4-.912-.752-1.234-1.074-1.288a28.167,28.167,0,0,0-3.973-.081c-.134,0-.215.054-.215.295,0,1.1-.027,4.161,0,4.752,0,.107.054.216.161.216h2.309a4.3,4.3,0,0,0,1.745-.216c.134-.08.295-.241.51-.778.053-.161.135-.323.242-.323.08,0,.107.109.107.377,0,.107-.107.913-.134,1.207a8.92,8.92,0,0,0,0,1.208c.027.188-.027.4-.107.4-.108,0-.162-.135-.3-.457s-.268-.751-.591-.8a21.461,21.461,0,0,0-3.838-.135c-.054,0-.162.081-.162.269-.027.644.054,3.919.081,4.322.054.751.081,1.1.536,1.154.27.027,1.047.081,2.175.081,1.96,0,2.148-.107,2.47-.349a5.2,5.2,0,0,0,.913-1.262c.107-.214.215-.348.295-.348.107,0,.134.187,0,.563-.08.215-.4,1.342-.456,1.611a.44.44,0,0,1-.376.295c-2.282,0-4.43-.08-6.363-.08-.7,0-1.611.08-1.852.08s-.537,0-.537-.161c0-.107.215-.188.43-.215.725-.134,1.047-.349,1.1-1.154.08-1.289.08-3.651.08-5.665V31.95c0-1.074-.322-1.289-1.047-1.45-.241-.054-.376-.135-.376-.215,0-.107.161-.188.322-.188.537,0,1.262.081,1.772.081" transform="translate(12.415 3.788)" fill="#032339"/><path d="M111.371,41.356a6.2,6.2,0,0,1-2.2-4.779,6.431,6.431,0,0,1,2.819-5.369,7.854,7.854,0,0,1,4.859-1.4,9.763,9.763,0,0,1,2.632.375c.482.162,1.181.4,1.4.511.187.08.268.215.268.483,0,.107.162,1.128.215,1.4.081.376.027.617-.081.617-.161,0-.242-.161-.349-.429a4.128,4.128,0,0,0-1.1-1.53,4.8,4.8,0,0,0-3.194-1.048,5.5,5.5,0,0,0-3.866,1.585,6.46,6.46,0,0,0-1.853,4.618,6.2,6.2,0,0,0,2.416,5.127,5.765,5.765,0,0,0,3.222,1.154,4.513,4.513,0,0,0,2.792-.752,1.807,1.807,0,0,0,.3-1.074c0-.456.053-1.664,0-2.282-.054-.7-.377-.885-1.289-1.019-.269-.027-.4-.135-.4-.215,0-.107.188-.188.617-.188.564,0,1.155.054,1.692.054.4,0,1.128-.081,1.557-.081.295,0,.537,0,.537.161,0,.107-.322.188-.456.242-.618.241-.752.375-.752,1.342,0,.886.134,2.309.134,2.55,0,.269.028.484-.161.564-.188.054-.618.269-1.155.43a10.45,10.45,0,0,1-3.3.671,8.018,8.018,0,0,1-5.289-1.718" transform="translate(13.735 3.752)" fill="#032339"/><path d="M123.087,30.1c.644,0,1.262.081,1.745.081.7,0,1.235-.081,1.745-.081.322,0,.484.053.484.161,0,.053-.216.188-.484.242-.778.161-.86.214-.86,2.228-.026.886-.053,6.739-.053,7.437a3.467,3.467,0,0,0,.216,1.638c.241.348.59.428,2.415.428a11.2,11.2,0,0,0,2.04-.107c.4-.08.779-.376,1.451-1.449.134-.216.214-.3.268-.3.107,0,.16.215-.027.671a16.557,16.557,0,0,1-.671,1.531.458.458,0,0,1-.376.187c-.939,0-1.826-.054-2.927-.08-.858-.027-2.818-.054-3.57-.054-.644,0-1.235.08-1.53.08-.242,0-.43-.026-.43-.133,0-.134.161-.161.323-.215,1.046-.188,1.127-.483,1.208-1.1.08-.779.08-1.96.08-4.7,0-2.712.027-4.054,0-4.7,0-.94-.215-1.262-1.1-1.4-.269-.054-.4-.108-.4-.215,0-.08.243-.161.457-.161" transform="translate(15.415 3.788)" fill="#032339"/><path d="M132.97,30.1c.591,0,1.1.081,1.772.081.537,0,1.53-.081,1.906-.081.161,0,.4.053.4.161s-.161.188-.457.242c-.724.134-.912.375-.939,1.046-.054,1.021-.081,3.249-.081,4.591,0,2.9-.027,4.538.027,5.1.054.671.215.912,1.127,1.073.243.081.376.135.376.242,0,.134-.241.16-.483.16-.322,0-1.315-.08-1.932-.08-.538,0-1.236.108-1.746.108-.214,0-.43-.054-.43-.161s.162-.188.457-.242c.778-.108,1.047-.456,1.074-1.557.027-1.155.027-2.9.027-4.618,0-2.094-.027-4.671-.054-4.886-.08-.564-.51-.7-1.074-.8-.187-.027-.376-.135-.376-.215,0-.134.242-.161.4-.161" transform="translate(16.672 3.788)" fill="#032339"/><path d="M142.319,40.335A3.153,3.153,0,0,0,143.339,42a3.451,3.451,0,0,0,2.013.671,2.414,2.414,0,0,0,2.632-2.47c0-1.45-.806-2.175-2.605-3.249-1.529-.912-2.926-2.013-2.926-3.785a3.156,3.156,0,0,1,1.288-2.55,4.662,4.662,0,0,1,2.712-.806,6.225,6.225,0,0,1,2.2.43.379.379,0,0,1,.268.268,9.119,9.119,0,0,0,.161,1.5c.054.295.027.483-.081.483s-.187-.134-.268-.4a2.662,2.662,0,0,0-.886-1.315,2.744,2.744,0,0,0-1.745-.591,2.195,2.195,0,0,0-2.308,2.362,2.861,2.861,0,0,0,1.342,2.283c.778.51,1.476.966,2.255,1.422a3.9,3.9,0,0,1,2.12,3.141c0,2.282-2.093,3.679-4.241,3.679a7.162,7.162,0,0,1-2.846-.591c-.268-.081-.321-.429-.4-.752-.027-.349-.108-.779-.162-1.449-.026-.242,0-.457.108-.457s.242.188.349.51" transform="translate(17.847 3.752)" fill="#032339"/><path d="M150.431,29.861c.081-.054.134,0,.241.107a1.517,1.517,0,0,0,.672.161c.295.027,2.47.081,4.671.081h3.624a4.5,4.5,0,0,0,1.691-.188c.135-.081.269-.161.323-.108s.054.134.027.242a7.476,7.476,0,0,0-.134,1.96c0,.295-.054.51-.162.51-.08,0-.161-.188-.188-.322a5.233,5.233,0,0,0-.4-1.208c-.16-.215-.214-.322-.885-.322h-3.141c-.108,0-.162.241-.162.348l-.053,7.061c0,1.182,0,2.6.08,3.221.081.591.376.807,1.074.941.3.053.457.16.457.267s-.323.163-.51.163c-.645,0-1.1-.108-1.906-.108-1.1,0-1.585.108-1.906.108-.377,0-.511-.081-.511-.163,0-.107.188-.187.457-.241.993-.134,1.127-.376,1.154-1.4.081-2.014.135-9.638.135-9.853,0-.107-.027-.321-.135-.348H153.25c-.886,0-1.53.027-1.8.054-.4.053-.725.322-.939,1.4-.054.241-.135.376-.215.376-.107,0-.161-.162-.161-.4,0-.429.214-1.342.214-2.04a.428.428,0,0,1,.081-.295" transform="translate(18.89 3.756)" fill="#032339"/><path d="M162.455,30.1c.483,0,1.235.081,1.906.081.644,0,1.127-.081,1.638-.081.214,0,.429.053.429.161,0,.161-.269.161-.429.215-1.021.215-1.021.8-1.047,1.772-.028,1.664-.028,2.684-.028,3.892v1.316a4.861,4.861,0,0,0,1.075,3.6,4.291,4.291,0,0,0,3.033,1.181c2.685,0,4.027-1.5,4.027-5.664V34.823c0-3.651-.107-4.027-.7-4.215-.188-.053-.376-.08-.563-.134-.189-.027-.377-.135-.377-.215,0-.108.161-.161.4-.161.428,0,.832.081,1.476.081.43,0,.993-.054,1.5-.054.267,0,.483.026.483.134s-.135.188-.457.242c-.833.214-1.02.564-1.074,1.4-.08,1.288-.107,2.63-.107,3.973-.027,2.872-.323,4.59-1.557,5.771a4.9,4.9,0,0,1-3.518,1.4,5.634,5.634,0,0,1-3.355-.886c-1.288-.966-1.8-2.255-1.8-5.1-.027-1.746,0-3.6-.054-5.263-.027-.913-.188-1.1-.94-1.288-.107-.027-.537-.135-.537-.242,0-.188.35-.161.564-.161" transform="translate(20.369 3.788)" fill="#032339"/><path d="M175.561,42.73c-.242,0-.484-.054-.484-.161,0-.134.189-.188.457-.241.832-.108.967-.269,1.047-.967.054-.457.054-1.208.054-4.725,0-3.6,0-4.564-.027-4.912-.027-.725-.188-1.075-1.047-1.155-.295-.054-.43-.134-.43-.241s.215-.189.376-.189c.107,0,1.047.054,1.584.054,1.047,0,2.04-.215,3.087-.215A9.257,9.257,0,0,1,184.9,31a5.993,5.993,0,0,1,3.168,5.369c0,3.946-2.9,5.744-5.584,6.362a9.4,9.4,0,0,1-1.987.162c-.509,0-.939-.054-1.5-.081-.671-.027-1.262-.108-1.906-.108-.59,0-1.342.027-1.53.027m2.926-12.161a.566.566,0,0,0-.268.51c-.054.859-.108,1.369-.108,4.94,0,2.04.027,3.14.108,4.188.08,1.315.214,1.5.617,1.745a5.217,5.217,0,0,0,2.067.51,6.154,6.154,0,0,0,2.443-.457,5.557,5.557,0,0,0,3.033-5.369,5.8,5.8,0,0,0-1.852-4.671,6.8,6.8,0,0,0-4.563-1.557,5.877,5.877,0,0,0-1.477.161" transform="translate(22.028 3.773)" fill="#032339"/><path d="M189.1,30.1c.591,0,1.1.081,1.772.081.537,0,1.53-.081,1.906-.081.161,0,.4.053.4.161s-.161.188-.457.242c-.724.134-.912.375-.939,1.046-.054,1.021-.081,3.249-.081,4.591,0,2.9-.027,4.538.027,5.1.054.671.215.912,1.127,1.073.243.081.376.135.376.242,0,.134-.241.16-.483.16-.322,0-1.315-.08-1.932-.08-.538,0-1.236.108-1.746.108-.214,0-.43-.054-.43-.161s.162-.188.457-.242c.778-.108,1.047-.456,1.074-1.557.027-1.155.027-2.9.027-4.618,0-2.094-.027-4.671-.054-4.886-.08-.564-.51-.7-1.074-.8-.187-.027-.376-.135-.376-.215,0-.134.242-.161.4-.161" transform="translate(23.735 3.788)" fill="#032339"/><path d="M98.026,51.268c.083.208.276.689.459.689.133-.01.126-.252.087-.608-.083-.572-.245-2.289-.245-2.663-.028-.244-.269-.252-.817-.25h-.168c-.517,0-1.415.014-2.455.028-1.622.025-3.643.054-5.467.054-.615,0-1.228-.032-1.82-.061s-1.2-.062-1.815-.062c-.254,0-.412.064-.412.167,0,.145.145.211.435.293,1.113.24,1.646.482,1.69,1.665.06,1.309.054,2.7.046,4.612,0,.712-.006,1.5-.006,2.374,0,3.3,0,6.415-.123,7.767-.125,1.331-.554,1.532-1.576,1.7-.6.15-.628.191-.628.29s.3.167.616.167c.045,0,.211-.01.439-.024.582-.037,1.557-.1,2.256-.1.5,0,1.032.054,1.542.106.494.051.963.1,1.4.1.405,0,.609-.106.617-.208,0-.069-.075-.109-.435-.211l-.056-.011c-1.167-.234-1.754-.35-1.837-1.816-.075-1.327-.082-5.184-.082-6.334,0-.132.129-.528.364-.528,4.507,0,5.2,0,5.742.168a1.761,1.761,0,0,1,.992,1.405c.161.485.271.51.292.51.041,0,.167,0,.167-.453,0-.191-.018-.486-.038-.8-.021-.343-.044-.7-.044-.958s.038-.618.079-1c.042-.4.086-.813.086-1.126,0-.254-.048-.411-.127-.412s-.125.084-.3.484c-.361.924-.733,1.3-1.367,1.394-.578.082-2.09.082-5.4.082a.377.377,0,0,1-.363-.4c-.125-1.29,0-7.183.042-7.563.024-.12.149-.683.4-.683.871,0,4.4.042,5.517.082,1.258.042,1.69.713,2.315,2.129" transform="translate(10.721 6.09)" fill="#032339"/><path d="M100.221,67.476c.379,0,.821-.039,1.287-.08s.95-.083,1.368-.083c.547,0,1.3.042,1.907.075.445.026.83.047,1.034.047.593,0,.657-.08.657-.168,0-.1-.16-.173-.519-.294-1.414-.249-1.684-.643-1.768-1.7-.06-.617-.055-2.07-.047-4.476,0-.947.006-2.041.006-3.29,0-1.93.038-5.374.123-6.987.043-1.086.378-1.46,1.493-1.666.585-.106.635-.208.63-.29s-.259-.167-.535-.167c-.259,0-.719.025-1.207.053-.584.033-1.245.07-1.693.07-.528,0-.992-.034-1.44-.065-.423-.03-.822-.057-1.255-.057-.32,0-.53.066-.535.167s.214.207.505.25c.853.162,1.568.37,1.7,1.29.041.324.083,4.15.083,7.444,0,2.591,0,5.27-.041,7.027-.042,1.677-.455,2.271-1.7,2.443-.582.107-.628.216-.628.29s.238.168.576.168" transform="translate(12.537 6.09)" fill="#032339"/><path d="M116.413,59.012c.194.263.5.713.882,1.282a48.164,48.164,0,0,0,3.69,5.005c1.376,1.458,2.361,2.344,4.436,2.344a3.315,3.315,0,0,0,1.513-.235c.16-.091.217-.162.206-.218-.007-.036-.039-.044-.167-.044a3.948,3.948,0,0,1-2.586-1.164l-.187-.188a19.445,19.445,0,0,1-2.109-2.4,53.07,53.07,0,0,1-3.6-5.318c-.1-.2-.153-.35-.1-.467a.342.342,0,0,1,.23-.174c3.188-1.021,3.663-3.257,3.663-4.5a4.033,4.033,0,0,0-1.924-3.447,7.269,7.269,0,0,0-4.41-1.13c-.712,0-1.428.042-2.119.082s-1.411.081-2.129.081c-.675,0-1.222-.045-1.661-.081-.276-.024-.494-.041-.666-.041-.276,0-.535.07-.535.167,0,.138.216.208.544.249,1.345.217,1.621.739,1.661,1.627.042.817.042,2.4.042,6.619,0,4.325,0,6.5-.124,8.215-.082,1.126-.43,1.492-1.614,1.7-.585.107-.63.187-.63.292,0,.082.15.168.616.168.256,0,.513-.023.811-.047.42-.035.9-.075,1.558-.075.645,0,1.313.038,1.9.072.462.027.86.051,1.162.051.375,0,.656-.083.656-.208s-.256-.2-.585-.25c-.994-.181-1.455-.555-1.5-1.216a18.067,18.067,0,0,1-.163-3.11v-3.8c0-.313.138-.65.364-.65a13.57,13.57,0,0,1,1.48.083,2.714,2.714,0,0,1,1.4.719m-2.883-1.3h0c-.271,0-.357-.238-.357-.691,0-.356.08-6.523.123-7.031.035-.491.137-.8.288-.879a5.435,5.435,0,0,1,1.627-.254,4.957,4.957,0,0,1,3.774,1.578,4.671,4.671,0,0,1,1.124,3.115,3.965,3.965,0,0,1-1.834,3.416,6.145,6.145,0,0,1-2.938.787h-.062c-.627,0-1.265,0-1.744-.041" transform="translate(13.678 6.086)" fill="#032339"/><path d="M127.765,67.4c.588-.035,1.392-.084,2.062-.084,1.41,0,2.882.027,4.441.057,1.685.032,3.386.064,5.192.064a.475.475,0,0,0,.54-.386c.083-.417.578-2.14.7-2.462.154-.432.153-.666.1-.735a.032.032,0,0,0-.033-.017c-.081,0-.186.1-.379.489a8.17,8.17,0,0,1-1.406,1.942c-.522.393-.852.551-3.809.551-1.661,0-2.865-.078-3.316-.124-.762-.089-.8-.67-.887-1.827-.044-.669-.162-5.619-.123-6.584,0-.314.188-.483.323-.483,4.232,0,5.325.072,5.86.206.471.079.689.621.88,1.1.024.059.047.115.071.171l.012.03c.171.411.257.616.365.616.088,0,.124-.254.086-.524a14.031,14.031,0,0,1,0-1.855c.019-.2.062-.567.1-.919.048-.406.1-.829.1-.913,0-.409-.016-.494-.086-.494s-.162.043-.294.438c-.343.858-.6,1.1-.809,1.226a6.909,6.909,0,0,1-2.7.338h-3.511a.361.361,0,0,1-.323-.4c-.029-.633-.018-3.132-.008-5.142,0-.84.008-1.593.008-2.087,0-.37.12-.528.4-.528,5.255,0,5.51.039,6.015.117l.042.007c.6.1,1.133.737,1.692,2.006.172.4.23.444.3.444.035,0,.037,0,.061-.03a.646.646,0,0,0,.065-.454c-.051-.358-.117-1.046-.17-1.6-.033-.33-.06-.607-.075-.73-.044-.222-.169-.422-.249-.422-.125,0-.267,0-.5.01-.476.012-1.2.03-1.992.03-.6,0-1.752.018-2.967.037-1.451.023-2.951.045-3.894.045-.385,0-.84-.028-1.319-.06s-.965-.063-1.376-.063c-.213,0-.413.1-.413.209s.136.167.511.249c1.166.26,1.654.635,1.654,2.282v5.432c0,3.122,0,6.66-.123,8.622-.087,1.3-.629,1.622-1.738,1.828-.355.044-.589.072-.589.25s.445.167.739.167c.134,0,.408-.016.755-.037" transform="translate(15.887 6.09)" fill="#032339"/><path d="M161.6,48.9c.382-.084.636-.241.636-.333,0-.146-.36-.168-.575-.168-.35,0-.689.028-1.048.059-.388.032-.79.065-1.238.065-.394,0-.893-.035-1.376-.069-.417-.028-.811-.055-1.076-.055-.385,0-.615.063-.615.168s.222.25.583.289c1.53.283,2.11.562,2.153,2.4.038,2.389.041,9.921.041,12.173a.252.252,0,0,1-.127.239.184.184,0,0,1-.209-.062C156,60.555,148.281,51.719,146.321,49.187c-.427-.548-.6-.663-.673-.663-.883,0-1.7-.057-2.348-.1-.474-.033-.884-.062-1.206-.062-.423,0-.574.09-.574.168,0,.111.131.165.628.25l.1.019a3.138,3.138,0,0,1,1.487.569c.367.321.519.712.519,2.308,0,1.869-.2,11.063-.287,12.5-.162,1.947-.445,2.593-1.9,2.849-.411.051-.67.114-.67.25,0,.208.454.208.7.208.1,0,.287-.02.527-.047a15.913,15.913,0,0,1,1.68-.116c.567,0,1.164.053,1.689.1.378.034.7.063.925.063.587,0,.657-.1.657-.167,0-.134-.2-.2-.672-.292-1.737-.331-2.065-.888-2.065-3.507V51.1a.144.144,0,0,1,.092-.141.2.2,0,0,1,.08-.014.378.378,0,0,1,.245.1c4.191,4.794,12.676,15.027,13.279,15.77.727.9.9.992,1,.992a.135.135,0,0,0,.1-.045,1.27,1.27,0,0,0,.1-.811c-.051-.966-.039-1.827-.023-3.019.01-.735.021-1.567.021-2.622,0-2.941.086-9.267.206-10.543A1.936,1.936,0,0,1,161.6,48.9" transform="translate(17.79 6.086)" fill="#032339"/><path d="M162.708,67.452c.1,0,.492-.015.991-.034.933-.035,2.343-.088,3.012-.088.9,0,4.779.048,7.611.084,1.671.02,2.991.037,3.171.037.494,0,1.154-.039,1.189-.378a28.567,28.567,0,0,1,.657-3.081c.083-.251.279-.888.1-.918-.138-.011-.323.2-.486.528a8.736,8.736,0,0,1-1.237,2.223,2.911,2.911,0,0,1-1.94.8l-.024,0c-.78.124-8.742.129-9.656.082a.519.519,0,0,1-.4-.18.209.209,0,0,1,.014-.223c2.29-3.456,7.784-11.4,9.641-13.973.154-.2.388-.52.661-.891.668-.91,1.584-2.155,2.081-2.711.087-.107.106-.2.088-.238s-.078-.041-.111-.041c-.216.025-.933.082-2.736.082-3.073,0-5.309.008-6.915.012-2.176.008-3.169.01-3.546-.012a4.928,4.928,0,0,1-1.326-.25c-.184-.06-.235.008-.272.084l-.226.574c-.263.674-.662,1.694-.957,2.4-.225.611-.194.871-.072.871.1,0,.211-.193.342-.411a8.973,8.973,0,0,1,1.564-2.016,2.034,2.034,0,0,1,1.295-.547l.057-.006c1.161-.083,7.958-.082,9.405-.043.11,0,.231.012.279.1s-.012.2-.1.351c-.021.036-.046.075-.07.117-3,4.422-9.432,13.6-12.3,17.365-.071.087-.1.164-.073.218s.143.106.3.106" transform="translate(20.372 6.073)" fill="#032339"/><path d="M180.442,67.436c.133,0,.408-.017.754-.037.587-.036,1.393-.084,2.062-.084,1.41,0,2.882.027,4.44.056,1.689.033,3.433.065,5.238.065a.59.59,0,0,0,.5-.387c.084-.418.578-2.142.7-2.462.155-.431.26-.732.073-.751-.051-.006-.187.1-.381.487a8.108,8.108,0,0,1-1.406,1.942c-.523.393-.851.551-3.809.551-1.657,0-2.865-.077-3.314-.123-.764-.089-.806-.671-.888-1.828-.045-.67-.162-5.622-.123-6.584,0-.314.188-.483.324-.483,4.232,0,5.324.072,5.858.207.473.078.691.621.883,1.1.025.057.046.114.069.169l.011.026c.172.413.258.621.367.621s.124-.256.087-.524a13.309,13.309,0,0,1,0-1.856c.017-.2.061-.555.1-.9.051-.414.1-.843.1-.929,0-.409.044-.494-.087-.494-.092,0-.2.163-.294.437-.342.858-.6,1.1-.808,1.226a6.9,6.9,0,0,1-2.7.339h-3.514c-.211,0-.322-.2-.322-.405-.029-.632-.017-3.132-.008-5.142,0-.84.008-1.593.008-2.086,0-.37.12-.528.4-.528,5.254,0,5.509.039,6.015.117l.042.006c.594.1,1.133.737,1.693,2.007.172.4.218.444.3.444.164,0,.153-.284.126-.485-.051-.358-.118-1.049-.172-1.6-.032-.326-.057-.6-.072-.723-.044-.223-.081-.422-.25-.422-.095,0-.267,0-.5.01-.478.012-1.2.03-1.993.03-.607,0-1.754.018-2.969.037-1.449.023-2.949.045-3.894.045-.384,0-.838-.029-1.318-.061s-.964-.062-1.376-.062c-.208,0-.41.1-.412.208,0,.138.136.168.511.25,1.165.26,1.653.634,1.653,2.282v5.432c0,3.121,0,6.659-.122,8.622-.087,1.3-.63,1.622-1.739,1.827-.355.045-.59.086-.59.251s.445.167.741.167" transform="translate(22.609 6.09)" fill="#032339"/><path d="M42.648,17.733a2.255,2.255,0,0,0,.03-.853,3.846,3.846,0,0,1,.616-2.068.261.261,0,0,0,.024-.043,4.339,4.339,0,0,0-.187-4.087l1.842-4.544v0c0-.011,0-.023.007-.034a.289.289,0,0,0,.009-.053c0-.01-.006-.02-.006-.032a.239.239,0,0,0-.008-.05c-.042-.109-1.08-2.7-6.916-2.951a11.675,11.675,0,0,0-6.646,1.765l0,0,0,0a.222.222,0,0,0-.057.06l0,0a.225.225,0,0,0-.021.054.23.23,0,0,0,0,.155c.048.4.364,1.462,1.345,4.647a4.507,4.507,0,0,0-.252,2.181,3.784,3.784,0,0,1,.019.988,10.64,10.64,0,0,0,.108,4.574,26.928,26.928,0,0,0-4.778,1.22l-1.779-.781-.011-.006a.229.229,0,0,0-.106-.018h0l-.007,0a.224.224,0,0,0-.1.028c-.015.009-.021.025-.034.037a.364.364,0,0,0-.042.042l-.01.017-1.3,2.109c-.014.02-.021.043-.035.064a27.17,27.17,0,0,0-5.33,44.663c.155.135.308.272.466.4A27.1,27.1,0,0,0,33.463,71.3c.2.024.39.054.587.074.284.028.57.046.856.066.159.011.319.027.478.037.487.026.977.041,1.469.041.513,0,1.022-.018,1.527-.045.158-.01.312-.025.467-.036.329-.024.655-.05.977-.084.156-.017.312-.041.468-.06a26.956,26.956,0,0,0,4.9-1.088c.159-.05.312-.1.467-.158a27.15,27.15,0,0,0,2.678-1.08c.156-.073.311-.145.466-.221.475-.234.942-.484,1.4-.744.156-.089.315-.177.467-.269a27.4,27.4,0,0,0,6.5-5.357c.158-.178.313-.358.467-.538a27.181,27.181,0,0,0-14.99-44.106m.5-5.312a1.126,1.126,0,0,0,.077-.11A4.027,4.027,0,0,1,42.9,14.56a4.277,4.277,0,0,0-.688,2.345.352.352,0,0,0,0,.048,1.706,1.706,0,0,1-.024.682,1.853,1.853,0,0,1-.16.445,1.93,1.93,0,0,1-.175.284.236.236,0,0,0,.015.3,3.036,3.036,0,0,1,.841,1.584.456.456,0,0,1-.037.151A3.656,3.656,0,0,1,41.4,17.968c-.006-.1-.006-.164,0-.2.032-.092.063-.177.1-.254a3.356,3.356,0,0,1,.229-.446,2.893,2.893,0,0,0,.236-1.574.565.565,0,0,0,.286-.09,1.021,1.021,0,0,0,.324-.807.92.92,0,0,1,.226-.647.147.147,0,0,0,.03-.035,1.614,1.614,0,0,0,.324-1.488m2.654,10.1,2.5.757a6.948,6.948,0,0,1,4.665,4.531L56.714,39.36a56.3,56.3,0,0,1,2.082,8.7A6.559,6.559,0,0,0,55.438,45c-3.589-1.124-5.92-.251-7.4,1.057a6.079,6.079,0,0,1,7.113-3.82.233.233,0,0,0,.078-.459,6.4,6.4,0,0,0-6.092,1.746c.352-.731.7-1.459,1.015-2.1a.243.243,0,0,0,.01-.18.233.233,0,0,0-.12-.133L47.722,40.02a7.346,7.346,0,0,1,5.2-4.941.234.234,0,1,0-.128-.449,7.816,7.816,0,0,0-5.5,5.189l-.266-.125V28.6a.234.234,0,1,0-.467,0V39.474l-4.517-2.132h0c-.035-.016-.733-.317-1.5.637v-8.8a.234.234,0,0,0-.467,0v9.536L37.69,43.6V26.507H39a2.48,2.48,0,0,0,1.63-.61l4.181-3.7c.305.117.633.229.988.331m8.638,24.306c-1.689-1.04-3.916-1.013-6.623.07,1.349-1.506,3.647-2.656,7.479-1.457a6.363,6.363,0,0,1,3.885,5.791,6.463,6.463,0,0,1-1.543,5.187V53.378c-.007-.19-.191-4.694-3.2-6.545m-6.049,6.04-2.783,3.179a3.568,3.568,0,0,1-.35.359v0a2.08,2.08,0,0,1-1.234.628,5.509,5.509,0,0,0,.985-.742.233.233,0,0,0-.323-.337c-.02.019-1.674,1.591-2.932,1.032a6.2,6.2,0,0,0,2.221-1.224.233.233,0,1,0-.307-.349,4.854,4.854,0,0,1-2.788,1.2,1.67,1.67,0,0,1-.415-.084,5.116,5.116,0,0,0,2.667-1.511.233.233,0,1,0-.315-.342c-1.218,1.125-2.236,1.578-3.028,1.349a1.848,1.848,0,0,1-1.05-.942l.61.3a.229.229,0,0,0,.092.024c.007,0,.011,0,.017,0a.248.248,0,0,0,.077-.012h.006a6.444,6.444,0,0,0,1.271-.731l.026-.02a4.669,4.669,0,0,0,.527-.455l1.8-2.346a.229.229,0,0,0,.027-.238.235.235,0,0,0-.195-.137l-1.549-.118a.229.229,0,0,0-.142.035,1.485,1.485,0,0,1-1.541.225l1.378-.812c.025-.012,2.606-1.272,4.118-.464.151.08.267-.023.35-.1a1.792,1.792,0,0,1,2.189-.331,2.354,2.354,0,0,1,1.022,1.353,2.022,2.022,0,0,1-.426,1.608M19.456,54.34l0,0v0c-2.473-4.475-2.634-9.976,3.583-26.21a6.9,6.9,0,0,1,3.339-3.989l2.542,9.656-.585.588a2.241,2.241,0,0,0-.324,2.364l.052.161a7.321,7.321,0,0,1-.477,3.873c-.331.656-.779,1.626-.927,1.944l-.03.066a1.89,1.89,0,0,0,.71,2.432,7.152,7.152,0,0,0,2.094.972l.034.009a11.725,11.725,0,0,0,3.134.343l.841,3.227c-1,1.183-4.144,2.333-7.216,1.587a4.379,4.379,0,0,1-2.552-1.762,5.974,5.974,0,0,1-.813-3.812,21.165,21.165,0,0,1,.475-2.749c.093-.428.188-.858.27-1.289a6.177,6.177,0,0,0,.125-1.428.227.227,0,0,0-.248-.22.232.232,0,0,0-.218.247,5.626,5.626,0,0,1-.118,1.314c-.08.427-.173.851-.267,1.277a21.4,21.4,0,0,0-.484,2.811,6.319,6.319,0,0,0,.893,4.115,4.865,4.865,0,0,0,2.828,1.951,9.15,9.15,0,0,0,2.153.254A8.213,8.213,0,0,0,33.577,50.3l.289,1.11-.3.62h0a.6.6,0,0,0-.1.3.232.232,0,0,0,.131.209l2.958,1.465a4.138,4.138,0,0,0-2.627.6c-6.211,3.622-9.986,3.082-12.059,1.992a5.914,5.914,0,0,1-2.406-2.254m7.188-31.02a2.073,2.073,0,0,0,.759-.361c.034,0,.068.006.1.006a2.09,2.09,0,0,0,.767-.151l.028.108.117.453L30.8,32.528a1.466,1.466,0,0,0-1.067.442l-.437.438L26.8,23.92l-.123-.467Zm.486-.866a1.7,1.7,0,0,1-.782-.433,1.612,1.612,0,0,1-.48-1.405l.071-.707.054-.537.071-.709.423.5.319.376.473.56.015.015a1.631,1.631,0,0,1,.235,2.025,1.837,1.837,0,0,1-.116.177,1.87,1.87,0,0,1-.155.158c-.043-.007-.084-.007-.127-.017m3.755.131a.3.3,0,0,0,.03.063l2.232,2.923c.017.023.034.043.051.063a2.478,2.478,0,0,0,1.887.873h2.138V44.553L35.734,47.6l-.905-3.219V27.6a.232.232,0,1,0-.465,0V42.713l-.927-3.3a.845.845,0,0,0,.369-.934.178.178,0,0,0-.015-.038l-.212-.413a.946.946,0,0,0,.377-.519.8.8,0,0,0-.182-.695l-.409-.464a1.185,1.185,0,0,0,.275-.768.977.977,0,0,0-.453-.741l-.638-.366a1.8,1.8,0,0,0-.351-.888l-.849-.808-2.487-9.539,1.332-.4a6.1,6.1,0,0,0,.69-.249M40.5,38.917a.209.209,0,0,0,.03-.056c.388-.743.775-1.022,1.046-1.093L34.7,51.387a3.16,3.16,0,0,0-.347.1l1.534-3.138h0ZM39.457,54.926,34,52.223a1.576,1.576,0,0,1,.829-.388L40.238,54.5a6.285,6.285,0,0,1-.78.424m-7.8-13.837a1.935,1.935,0,0,0-.1-.379,2.371,2.371,0,0,1,.018-1.468.52.52,0,0,1,.337-.256,1.08,1.08,0,0,1,.715.006.622.622,0,0,1,.314.39l2.482,8.844-1.245,2.542Zm-4.047,3.753a1.39,1.39,0,0,1-.553-1.879l.023-.047c.393-.85.7-1.5.919-1.931a7.793,7.793,0,0,0,.507-4.222l-.054-.167a1.774,1.774,0,0,1,.233-1.915l.374-.374.378-.377.628-.629c.021-.021.5-.481.874-.253a.354.354,0,0,1,.042.02l.619.588.254.243a1.2,1.2,0,0,1,.138.256l-.247-.142-.039-.024a1.06,1.06,0,0,0-.538-.151.868.868,0,0,0-.553.194l-.893.816-.276.253a.227.227,0,0,0-.071.191l.032.095a.2.2,0,0,0,.026.044.232.232,0,0,0,.329.014l.118-.108,1.037-.95a.421.421,0,0,1,.406-.061.67.67,0,0,1,.171.081l.422.242.319.181.011.007.687.393a.516.516,0,0,1,.242.375.672.672,0,0,1-.127.383l-.314-.355a1.05,1.05,0,0,0-.579-.239,1.128,1.128,0,0,0-.473.052,1.3,1.3,0,0,0-.308.14l-.932.538a.233.233,0,1,0,.233.4l.938-.543a.986.986,0,0,1,.212-.1.647.647,0,0,1,.5.025.547.547,0,0,1,.08.046l.483.547h0l.529.6c.12.161.1.256.09.287a.427.427,0,0,1-.142.2l-.082-.163a.257.257,0,0,0-.032-.046,1.348,1.348,0,0,0-.57-.36,1.006,1.006,0,0,0-.5-.017.673.673,0,0,0-.109.023l-1.07.212a.234.234,0,1,0,.092.458l1.094-.22a.616.616,0,0,1,.135-.028.729.729,0,0,1,.552.22l.024.046.463.907a.326.326,0,0,1-.079.289c-.01.011-.019.024-.029.034a.991.991,0,0,0-.593-.445,1.591,1.591,0,0,0-.891.033.964.964,0,0,0-.6.471,1.193,1.193,0,0,0-.063.133,3.088,3.088,0,0,0,.009,1.71c.015.038.02.083.032.125.427,1.53-1.309,4.128-1.729,4.724a6.664,6.664,0,0,1-1.808-.862M31.543,42.5l.932,3.577a11.753,11.753,0,0,1-2.577-.242A11.721,11.721,0,0,0,31.543,42.5m-9.9,14.51c.068.036.136.071.207.1l3.183,7.568c.01.026.849,2.123,2.774,2.123a3.119,3.119,0,0,0,1.036-.187A3.259,3.259,0,0,0,30.6,64.58c-.294,2.571-1.847,3.3-1.944,3.34a2.314,2.314,0,0,1-1.94.167c-1.8-.664-2.932-3.416-2.944-3.446l-3.658-8.723a6.813,6.813,0,0,0,1.527,1.09m9.047,4.539h0l-.014,0c-.006,0-.01,0-.015,0a.131.131,0,0,0-.029.011.322.322,0,0,0-.032.008l-.012.009a.287.287,0,0,0-.035.027.14.14,0,0,0-.025.02h0l-.006.011a.262.262,0,0,0-.023.038.248.248,0,0,0-.017.029l0,.014a.139.139,0,0,0,0,.044.245.245,0,0,0-.006.033c.224,3.617-1.7,4.35-1.779,4.378-2.236.784-3.182-1.562-3.222-1.668l-3-7.131c2.294.854,6.03.931,11.707-2.382a4.36,4.36,0,0,1,3.91-.2c-.342.807-2.937,6.555-7.394,6.75m15.172-12.2,0,.008c-.019.055-.038.106-.054.154l0,.015a3.1,3.1,0,0,0-.467.334c-1.727-.78-4.293.473-4.419.536l-1.686.993a.227.227,0,0,0-.113.159.232.232,0,0,0,.048.188,1.716,1.716,0,0,0,2.317.092l1.046.081-1.516,1.981a3.948,3.948,0,0,1-.343.3l-5.5-2.71,6.884-13.622,7.572,3.574c-2.28,4.69-2.837,5.89-2.953,6.251a8.734,8.734,0,0,0-.809,1.662m-5.539-23.8A2.025,2.025,0,0,1,39,26.041H35.086a2.012,2.012,0,0,1-1.532-.709l-2.246-2.941c.24-.119.467-.247.68-.378L34.1,24.865a1.291,1.291,0,0,0,.983.455H39a1.3,1.3,0,0,0,.85-.317l3.818-3.334c.2.113.428.222.664.326Zm-.779-.9a.827.827,0,0,1-.543.2H35.086a.818.818,0,0,1-.618-.278l-2.087-2.816c.193-.131.372-.258.534-.377a3.091,3.091,0,0,0,.333.556.242.242,0,0,0,.066.056,2.988,2.988,0,0,0,1.411,2.081,1.577,1.577,0,0,0,.092.217.227.227,0,0,0,.184.122h.023a.228.228,0,0,0,.18-.087,1.39,1.39,0,0,1,1.013-.449A2.989,2.989,0,0,0,38.6,22.711a1.639,1.639,0,0,0,1.3-1.354,2.065,2.065,0,0,0,1.406-1.236,1.774,1.774,0,0,0,.093-.579,5.272,5.272,0,0,0,1.844,1.878ZM43.1,9.513l-.366.9a21.152,21.152,0,0,0-6.91-1.2,14.773,14.773,0,0,0-2.742.231c-.092-.3-.193-.63-.295-.968A14.907,14.907,0,0,1,43.1,9.513M34.2,7.321a2.027,2.027,0,0,1-.481-2.343A1.936,1.936,0,0,1,34.2,7.321m.62-1.309,1.165-1.5,1.27,1.516a2.64,2.64,0,0,0,.409,1.541,15.924,15.924,0,0,0-3.126.1,2.411,2.411,0,0,0,.283-1.657M41.392,8.3a14.929,14.929,0,0,0-3.164-.68,2.427,2.427,0,0,0,.743-1.43l1.682-1.074.88,1.562A2.606,2.606,0,0,0,41.392,8.3m-3.4-1.093a2.027,2.027,0,0,1,.254-2.378,1.937,1.937,0,0,1-.254,2.378m4.853-1.3a1.937,1.937,0,0,1-1.024,2.162,2.034,2.034,0,0,1,1.024-2.162m-.476,6.585a1.71,1.71,0,0,0-.582,1,1.147,1.147,0,0,1-.225.643c-.05-.1-.086-.17-.093-.181a3.453,3.453,0,0,1-.53-1.883c0-.048.007-.082.007-.086a.129.129,0,0,0,0-.042,5.42,5.42,0,0,0-.086-1.6c.6.153,1.223.34,1.861.565a2.845,2.845,0,0,1,.17.3.993.993,0,0,1-.521,1.285m.385.3a1.476,1.476,0,0,1-.3.842,1.389,1.389,0,0,0-.349.974.588.588,0,0,1-.118.406.145.145,0,0,1-.107.01,4.156,4.156,0,0,0-.128-.44,1.307,1.307,0,0,0,.5-1.026,1.252,1.252,0,0,1,.423-.708c.027-.018.054-.038.081-.059m-6.974,2.344c-.07.075-.248.06-.337.052s-.8,0-.93,0-.178-.057-.189-.074a.528.528,0,0,1-.023-.379l.5-2.48a.218.218,0,0,0,0-.081c-.151-.99-1.215-1.255-1.924-1.268a4.109,4.109,0,0,1,.218-.984,18.307,18.307,0,0,1,7.241.294c.146.435.583,2.3-1.054,5.7a6.6,6.6,0,0,0-.528,1.268c-.032.1-.059.208-.084.316a1.5,1.5,0,0,0-.33-.347.692.692,0,0,0-.086-.056,2.319,2.319,0,0,1-.556-.7c-.491-1.149-1.071-1.438-1.414-1.5,0-.043,0-.087-.011-.134a.233.233,0,0,0-.46.077.4.4,0,0,1-.034.306M32.9,11.987c-.009-.1-.018-.16-.02-.167a3.654,3.654,0,0,1-.03-.448c.4.008,1.335.106,1.477.832l-.028.14a1.841,1.841,0,0,0-1.4-.357m.985.633a1.468,1.468,0,0,1-.986.305,2.845,2.845,0,0,0,.029-.48,1.438,1.438,0,0,1,.957.175m-1.073.771c.061.006.122.011.184.011a1.991,1.991,0,0,0,1.175-.422l-.331,1.645a1.075,1.075,0,0,0,.024.621,2.481,2.481,0,0,0-.717,1.682,3.872,3.872,0,0,1-.14.445,12.133,12.133,0,0,1-.195-3.982m.27,4.8a.241.241,0,0,1,.02-.027v0a1.75,1.75,0,0,0,.218-.348,3.775,3.775,0,0,0,.2-.5c.052-.162.08-.283.084-.3.158-1.047.462-1.375.6-1.431a.831.831,0,0,0,.295.069c.319,0,.848,0,.93,0,.03,0,.078.006.134.006a.736.736,0,0,0,.555-.209.554.554,0,0,0,.075-.107c.2.037.651.236,1.08,1.241a3.337,3.337,0,0,0,.357.54,2,2,0,0,0,.378.364.753.753,0,0,1,.147.117,1.51,1.51,0,0,1,.415.975.169.169,0,0,0,.016.053c0,.01,0,.021.008.03a.245.245,0,0,0,.037.047c.006.006.009.015.016.02a.324.324,0,0,0,.048.032c.008,0,.015.01.024.014a.226.226,0,0,0,.084.016h.024a.365.365,0,0,0,.046-.015.278.278,0,0,0,.041-.012.2.2,0,0,0,.033-.028.158.158,0,0,0,.037-.029A.315.315,0,0,0,39,18.673a.19.19,0,0,0,.025-.044.312.312,0,0,0,.006-.044.224.224,0,0,0,0-.047,2.926,2.926,0,0,1,.07-.864,4.619,4.619,0,0,1,.123-.458,6.659,6.659,0,0,1,.463-1.09A14.077,14.077,0,0,0,40.7,13.408a5,5,0,0,0,.356.776,3.242,3.242,0,0,1,.256,2.65,3.254,3.254,0,0,0-.3.591,3.9,3.9,0,0,0-.138.447c-.045-.077-.08-.125-.087-.134a.232.232,0,0,0-.323-.056.224.224,0,0,0-.088.131.228.228,0,0,0,.032.195,2.636,2.636,0,0,1,.455,1.965,1.542,1.542,0,0,1-.929.873,4.194,4.194,0,0,0-.249-1.231.234.234,0,0,0-.441.154,2.293,2.293,0,0,1,.029,1.951,1.275,1.275,0,0,1-.845.548.234.234,0,0,0-.169.1,2.538,2.538,0,0,1-2.047,1.04,1.911,1.911,0,0,0-1.1.367,4.116,4.116,0,0,1,.23-2.7.234.234,0,0,0-.435-.175,4.846,4.846,0,0,0-.361,2.448,2.79,2.79,0,0,1-.513-3.223.234.234,0,0,0-.1-.313.232.232,0,0,0-.314.1,3.93,3.93,0,0,0-.324,1.178l-.011-.032a1.931,1.931,0,0,1-.091-.28,1.977,1.977,0,0,1,.259-1.532.234.234,0,0,0-.379-.274,2.251,2.251,0,0,0-.2.394,1.424,1.424,0,0,1,.216-1.178M43.277,9.078q-.657-.326-1.306-.57A2.337,2.337,0,0,0,43.25,6.983L44.323,6.5ZM38.037,3.484c4.576.195,6.031,1.883,6.394,2.458l-1.1.493a3.586,3.586,0,0,0-.082-.919.231.231,0,0,0-.307-.171,2.841,2.841,0,0,0-1.133.873l-.87-1.546a.232.232,0,0,0-.329-.082L38.972,5.635a3.174,3.174,0,0,0-.477-1.312.228.228,0,0,0-.159-.109.234.234,0,0,0-.188.05,2.877,2.877,0,0,0-.775,1.18L36.158,3.992a.214.214,0,0,0-.182-.082A.227.227,0,0,0,35.8,4L34.641,5.483a3.249,3.249,0,0,0-.835-1.064.235.235,0,0,0-.187-.055.24.24,0,0,0-.163.1A2.886,2.886,0,0,0,33.084,5.7L31.97,4.977a11.677,11.677,0,0,1,6.067-1.493M32.655,8.046c-.295-.978-.589-1.969-.752-2.554l1.214.791a2.564,2.564,0,0,0,.869,1.468,12.505,12.505,0,0,0-1.331.295m-.01,9.86.016.077a2.112,2.112,0,0,0,.023,2.223,2.422,2.422,0,0,0,.071.716,8.6,8.6,0,0,1-2.692,1.466l-1.316.4-.054-.2a2.1,2.1,0,0,0-.289-3.636,26.472,26.472,0,0,1,4.242-1.044m-5.5,1,.607.267.262.116.019.007A1.647,1.647,0,0,1,29.1,21.22a1.632,1.632,0,0,1-.7,1c-.01.008-.019.016-.029.023a1.616,1.616,0,0,1-.458.191l-.032.008.014-.023a2.106,2.106,0,0,0,.338-1.366,2.118,2.118,0,0,0-.6-1.269l-.366-.431-.317-.376-.221-.259Zm-1.589.187L25.5,19.6l-.054.536-.043.429a2.105,2.105,0,0,0,.845,1.994,2.148,2.148,0,0,0,.43.241c.015.006.028.008.042.014-.016.006-.03.015-.047.02a1.629,1.629,0,0,1-.37.087c-.041,0-.079,0-.119,0A1.633,1.633,0,0,1,24.5,21.453a1.65,1.65,0,0,1,.187-.938c.028-.054.055-.11.089-.162l.367-.592ZM10.113,44.312A26.763,26.763,0,0,1,24.072,20.831a2.127,2.127,0,0,0-.041.671,2.116,2.116,0,0,0,2.1,1.891c.017,0,.034,0,.051,0l.07.267a7.3,7.3,0,0,0-3.652,4.31C16.341,44.3,16.5,49.916,19.015,54.5v9.706a26.672,26.672,0,0,1-8.9-19.9m9.368,20.3V55.606l3.864,9.211c.048.122,1.214,2.971,3.212,3.706a2.69,2.69,0,0,0,.943.172,2.894,2.894,0,0,0,1.359-.355,4.246,4.246,0,0,0,2.174-3.4,25.011,25.011,0,0,0,2.15,5.855,26.626,26.626,0,0,1-13.7-6.18m14.274,6.253A25.925,25.925,0,0,1,31.077,62.8c-.023-.257-.057-.526-.1-.8,2.015-.184,3.948-1.441,5.6-3.656a16.914,16.914,0,0,0,1.77-2.982,2.371,2.371,0,0,0,1.086,1.047,2.213,2.213,0,0,0,.4.337L35.058,70.985q-.657-.044-1.3-.118m3.1.185q-.66,0-1.314-.034l2.84-8.479V71c-.5.028-1.012.046-1.527.046m1.994-.082V61.146l.977-2.914v12.65c-.322.036-.648.063-.977.087m1.446-.146V56.973a2.021,2.021,0,0,0,.561.12c.051,0,.1.006.153.006.019,0,.037,0,.054,0a1.834,1.834,0,0,0,1.27.49,2.91,2.91,0,0,0,1.08-.236,1.211,1.211,0,0,0,.606.165,2.1,2.1,0,0,0,1.174-.447V69.712a26.4,26.4,0,0,1-4.9,1.11m5.365-1.268V56.68a4.256,4.256,0,0,0,.31-.325l2.369-2.709V68.455a26.158,26.158,0,0,1-2.678,1.1M48.8,68.222V53.1a2.456,2.456,0,0,0,.474-1.929A2.812,2.812,0,0,0,48.018,49.5a2.784,2.784,0,0,0-.626-.233,1.957,1.957,0,0,1,1.366.271c1.542,1.023,1.447,4.34,1.443,4.382V67.464c-.457.266-.925.519-1.4.758M50.668,67.2V53.931c.007-.146.108-3.61-1.652-4.778a2.738,2.738,0,0,0-2.52-.142,8.248,8.248,0,0,1,.558-1.084v0c.055-.087.11-.174.17-.261,2.915-1.339,5.259-1.486,6.968-.435,2.794,1.719,2.977,6.121,2.978,6.158v8.278a26.954,26.954,0,0,1-6.5,5.531m6.97-10.084a6.859,6.859,0,0,0,2-5.941,8.708,8.708,0,0,0-.211-1.366v-.017a50.582,50.582,0,0,0-2.275-10.575L53.409,27.668a7.289,7.289,0,0,0-4.991-4.837l-2.482-.753c-.386-.11-.734-.232-1.056-.359l-.03-.012A7.448,7.448,0,0,1,43.036,20.7a.868.868,0,0,0,.143-.426,3.123,3.123,0,0,0-.838-1.788,2.451,2.451,0,0,0,.161-.307A26.716,26.716,0,0,1,57.638,61.108Z" transform="translate(1.214 0.38)" fill="#032339"/><path d="M31.211,15.585a.233.233,0,0,0,.312-.109c.027-.056.086-.176.471-.066a4.229,4.229,0,0,0,1.165.008.367.367,0,0,1,.4.3,3.237,3.237,0,0,0,.1.372,3.375,3.375,0,0,0,.893,1.426,2.458,2.458,0,0,1,.537,2.6.232.232,0,0,0,.12.306.228.228,0,0,0,.092.02.234.234,0,0,0,.215-.141,2.924,2.924,0,0,0-.644-3.12,2.854,2.854,0,0,1-.719-1.1,3.057,3.057,0,0,1-.136-.447l-.006-.016a.844.844,0,0,0-.891-.661,3.806,3.806,0,0,1-1,.007c-.629-.178-.9.072-1.018.314a.233.233,0,0,0,.109.312" transform="translate(3.91 1.876)" fill="#032339"/><path d="M33.22,15.685a1.726,1.726,0,0,0-.377.029,5.306,5.306,0,0,1-1.271-.07.306.306,0,0,0-.064,0,.357.357,0,0,0-.036,0,.232.232,0,0,0,0,.454l.051.01a4.9,4.9,0,0,0,.626.069.875.875,0,0,0-.035.584.234.234,0,0,0,.226.178.241.241,0,0,0,.056-.007.232.232,0,0,0,.171-.283c-.053-.216.015-.3.037-.325a.531.531,0,0,1,.3-.15c.1-.007.213-.016.326-.028A.232.232,0,0,0,33.426,16a.266.266,0,0,0,.016-.09.235.235,0,0,0-.222-.226" transform="translate(3.937 1.969)" fill="#032339"/><path d="M32.8,17.44a1.2,1.2,0,0,1-.647-.152.233.233,0,0,0-.341.317c.053.061.281.266.964.3h.012a.234.234,0,0,0,.012-.467" transform="translate(3.996 2.167)" fill="#032339"/><path d="M36.283,11.076a.234.234,0,1,0,.245-.4,3.064,3.064,0,0,0-3.846.184.233.233,0,0,0,.006.33.228.228,0,0,0,.161.066.232.232,0,0,0,.168-.07,2.592,2.592,0,0,1,3.266-.113" transform="translate(4.104 1.272)" fill="#032339"/><path d="M33.214,11.453a.231.231,0,0,0,.006.337,2.082,2.082,0,0,0,1.423.623,2.011,2.011,0,0,0,1.263-.483.24.24,0,0,0,.072-.172.232.232,0,0,0-.077-.169,1.889,1.889,0,0,0-2.687-.135m.539.171a1.369,1.369,0,0,1,1.61.124,1.406,1.406,0,0,1-1.61-.124" transform="translate(4.17 1.379)" fill="#032339"/><path d="M47.35,8.585a.135.135,0,0,1,.029.136c-.1.271-.176.574-.206.688-.028.137-.084.2-.124.182S47,9.515,47.017,9.4a1.055,1.055,0,0,0-.163-.734,1.522,1.522,0,0,0-.718-.558,1.3,1.3,0,0,0-1.629.8,1.5,1.5,0,0,0,.295,1.431c.286.4.522.752.759,1.1a2.03,2.03,0,0,1,.368,1.949A2.076,2.076,0,0,1,43.171,14.4a3.626,3.626,0,0,1-1.263-.784.333.333,0,0,1-.071-.334,6.52,6.52,0,0,1,.169-.77c.032-.114.081-.187.12-.172s.048.086.037.242a1.539,1.539,0,0,0,1.074,1.637,1.394,1.394,0,0,0,1.807-.818c.25-.683-.092-1.242-.638-1.99a2.583,2.583,0,0,1-.678-2.437,1.688,1.688,0,0,1,1.12-1.061,2.239,2.239,0,0,1,1.442.075,4.642,4.642,0,0,1,1.059.593" transform="translate(5.262 0.986)" fill="#032339"/><path d="M46.722,15.693c.483.19.624.073.9-.338.58-.862,2.694-4.548,2.75-4.689.038-.089.027-.133,0-.149a6.79,6.79,0,0,0-.68-.427,5.87,5.87,0,0,0-.816-.406c-.193-.073-.377-.03-.715.257-.11.084-.184.1-.221.082s.006-.095.052-.154a6.127,6.127,0,0,0,.573-.719c.059-.079.084-.125.141-.118.025,0,.042.037.048.09A.585.585,0,0,0,49,9.383c.143.1,1.057.632,2.013,1.18.715.41,1.587.911,1.858,1.041a1.376,1.376,0,0,0,.564.2c.053-.007.087,0,.084.024a.221.221,0,0,1-.06.126,5.172,5.172,0,0,0-.432.69c-.08.138-.153.182-.191.161s-.007-.115.01-.167a1.106,1.106,0,0,0,.073-.538c-.041-.122-.14-.229-.79-.6-.287-.165-.751-.431-.911-.5-.052-.017-.1.052-.141.116-.2.344-1.456,2.5-1.68,2.888-.3.519-.93,1.686-1.067,1.989-.144.338-.089.456.173.73.1.092.132.136.106.184s-.1.028-.223-.042c-.215-.123-.469-.343-.841-.556-.474-.271-.784-.376-.933-.46-.12-.069-.145-.133-.119-.18s.122-.017.234.024" transform="translate(5.848 1.137)" fill="#032339"/><path d="M54.45,12.585c.193.171.394.409.682.666.24.214.492.4.675.561.088.078.107.137.086.161-.036.039-.12.007-.2-.034-.464-.3-.69-.014-1.024.361-.694.744-1.655,1.823-1.995,2.237a2.6,2.6,0,0,0-.759,1.717,2.1,2.1,0,0,0,.733,1.444c.9.8,1.907.869,3.367-.654.279-.28.621-.65.858-.913,1.353-1.518,1.381-1.679,1.229-1.958a1.8,1.8,0,0,0-.164-.233c-.056-.064-.078-.154-.056-.178.036-.041.09-.021.178.057.168.15.283.294.53.516.174.156.4.317.6.489.089.079.129.145.109.168-.037.041-.1.029-.248-.061-.369-.23-.527-.084-.871.254-.467.458-1.415,1.52-1.9,1.988A3.938,3.938,0,0,1,54,20.546,2.574,2.574,0,0,1,52.14,19.8a2.9,2.9,0,0,1-.925-1.471,2.8,2.8,0,0,1,.937-2.449c.526-.621,1.653-1.868,2.049-2.361.324-.428.351-.49.1-.87-.026-.051-.061-.125-.025-.164s.1.032.172.1" transform="translate(6.439 1.571)" fill="#032339"/><path d="M60.166,17.8c.261.366.534.749.824,1.082.194.217.476.54.614.732a4.33,4.33,0,0,1,.9,2.253,3.234,3.234,0,0,1-1.393,2.95,3.4,3.4,0,0,1-4.44-.293,4.893,4.893,0,0,1-.641-.752c-.137-.19-.275-.422-.431-.679-.169-.272-.316-.536-.5-.8-.168-.235-.378-.493-.447-.589s-.091-.185-.047-.216c.026-.018.082.007.167.106.276.276.41.3.762.074.227-.123,1.054-.7,1.768-1.207,1.56-1.112,2.306-1.67,2.55-1.882.293-.234.348-.34.182-.722-.047-.084-.053-.146-.018-.171s.09.015.158.111m.7,1.276c-.034-.029-.138-.046-.3.072-.308.194-.584.377-2.2,1.525-.907.646-1.43,1.057-1.837,1.388-.428.357-.583.546-.593.882a1.5,1.5,0,0,0,.312.843,2.393,2.393,0,0,0,.892.809,3.08,3.08,0,0,0,3.289-.438,3.385,3.385,0,0,0,1.494-2.273,3,3,0,0,0-.564-2.3,2.373,2.373,0,0,0-.491-.5" transform="translate(6.866 2.226)" fill="#032339"/><path d="M64.229,23.878c.156.316.223.546.366.834.156.316.341.594.446.8.043.087.053.154.024.168s-.1,0-.158-.1c-.247-.355-.4-.3-.8-.127-.494.208-1.6.769-2.2,1.063-1.41.7-2.207,1.116-2.485,1.278-.35.209-.388.3-.319.612.038.147.024.19-.025.215s-.091-.039-.147-.154c-.075-.153-.167-.408-.3-.686-.238-.48-.423-.734-.514-.916-.043-.086-.056-.162-.009-.187.029-.014.082.02.2.163.253.317.435.3,1.015.024.565-.257,3.207-1.576,3.659-1.8a8.805,8.805,0,0,0,.9-.494c.3-.195.288-.31.2-.673-.014-.077,0-.129.025-.144s.077.034.119.12" transform="translate(7.307 2.99)" fill="#032339"/><path d="M64.414,34.492a3.46,3.46,0,0,1-3.586-1,3.486,3.486,0,0,1,1.738-5.683,3.306,3.306,0,0,1,3.085.527,3.486,3.486,0,0,1-1.237,6.159m1.044-5.8a3.975,3.975,0,0,0-2.587-.018,4.019,4.019,0,0,0-2.038,1.473,2.422,2.422,0,0,0-.473,2.186,1.7,1.7,0,0,0,.739.973,3.559,3.559,0,0,0,3.051.3A4.107,4.107,0,0,0,66.369,32,2.3,2.3,0,0,0,66.687,30a2.377,2.377,0,0,0-1.229-1.307" transform="translate(7.545 3.478)" fill="#032339"/><path d="M67.808,38.406a1.531,1.531,0,0,1-1.231.759,1.372,1.372,0,0,1-1.241-.517,2.156,2.156,0,0,1-.377-.583c-.024-.042-.088-.026-.191.025-.391.234-1.336.918-1.811,1.3a7.161,7.161,0,0,0-.912.852,1.182,1.182,0,0,0-.356.832c.006.074-.021.142-.053.143s-.068-.037-.095-.11a1.431,1.431,0,0,1-.09-.476,1.876,1.876,0,0,1,.735-1.634c.582-.517,1.826-1.394,2.14-1.632.171-.152.259-.266.269-.406a1.543,1.543,0,0,0,0-.45.137.137,0,0,0-.114-.088c-.129-.012-1.367.082-1.771.123A3.735,3.735,0,0,0,61.7,36.7c-.125.041-.236.135-.272.513-.012.119-.042.164-.084.168s-.081-.08-.089-.2c-.016-.193.014-.517-.016-.911s-.113-.764-.127-.967c-.008-.107.008-.184.061-.187s.08.059.111.2c.1.346.2.445.645.445.611-.015,1.467-.059,2.8-.16,1.484-.111,2.153-.206,2.514-.254.3-.044.456-.068.5-.521.014-.1.029-.185.083-.188s.069.059.078.187c.011.15,0,.462.03.834.035.449.11.733.152,1.288a2.289,2.289,0,0,1-.276,1.458m-.036-2.175c-.012-.02-.025-.052-.208-.048-.2,0-2.434.163-2.615.177-.138.01-.178.056-.176.1a1.032,1.032,0,0,0,0,.258,3.109,3.109,0,0,0,.321,1.113,1.479,1.479,0,0,0,1.251.507,1.676,1.676,0,0,0,1.194-.52,1.625,1.625,0,0,0,.334-1.25.684.684,0,0,0-.1-.335" transform="translate(7.689 4.359)" fill="#032339"/><path d="M68.3,40.93c-.032.254-.113.557-.16.94-.041.319-.047.63-.078.875-.015.117-.053.165-.084.161-.054-.007-.075-.095-.086-.182-.018-.553-.381-.576-.879-.638-1.008-.147-2.44-.326-2.974-.372a2.605,2.605,0,0,0-1.844.352,2.1,2.1,0,0,0-.771,1.424c-.15,1.2.368,2.064,2.451,2.4.391.07.888.142,1.237.186,2.019.252,2.167.184,2.31-.1a1.753,1.753,0,0,0,.1-.269c.02-.083.082-.151.115-.147.053.007.068.063.054.179-.028.223-.083.4-.124.73-.029.233-.033.513-.064.769-.015.116-.045.188-.077.185-.053-.008-.079-.064-.089-.238-.021-.435-.231-.482-.7-.573-.643-.125-2.056-.3-2.718-.437a3.943,3.943,0,0,1-2.421-1.09,2.567,2.567,0,0,1-.446-1.953,2.886,2.886,0,0,1,.684-1.6,2.794,2.794,0,0,1,2.548-.621c.809.08,2.475.3,3.106.345.536.024.6.011.773-.41.028-.051.069-.12.122-.115s.032.1.019.2" transform="translate(7.677 5.126)" fill="#032339"/><path d="M67.463,48.627c-.1.225-.374.82-.5,1.139-.016.039-.075.074-.189.075-1.116.064-4.454.393-5.875.569-.071.007-.039.042.006.1.9,1.024,2.879,3.243,3.275,3.672.207.206.517.474.692.611.017.018.111.1.092.149-.108.28-.252.833-.36,1.112-.038.1-.081.152-.122.136s-.05-.11-.032-.185c.087-.642-.007-.725-.585-.982-.331-.151-1.525-.624-2.024-.815-1.089-.42-2.093-.762-2.419-.865-.6-.184-.727-.108-1,.235-.065.078-.122.136-.171.117s-.037-.082.009-.2c.073-.189.341-.706.445-.975.159-.41.243-.687.3-.838.038-.1.09-.2.16-.178.041.015.043.131.014.234-.052.462.081.592.9.942.528.239,3.2,1.27,3.653,1.443.1.038.111.009.06-.035-1.081-1.184-3-3.337-3.887-4.229-.1-.1-.144-.159-.12-.218s.206-.059.429-.074c1.19-.081,4.479-.339,5.4-.418.1-.019.108-.039-.015-.109-.564-.263-3.117-1.375-3.527-1.532a2.71,2.71,0,0,0-.752-.222.631.631,0,0,0-.6.356c-.063.1-.125.147-.165.132-.06-.024-.045-.12.008-.227s.234-.459.373-.818.182-.653.221-.753c.051-.129.09-.171.141-.152.029.011.054.066.029.217a.81.81,0,0,0,.111.663,3.073,3.073,0,0,0,1,.626c.566.287,2.73,1.281,3.368,1.528.6.231.762.225,1.027.132a.973.973,0,0,0,.481-.445c.055-.082.113-.141.152-.125s.026.114-.009.2" transform="translate(7.326 5.767)" fill="#032339"/><path d="M61.632,60.17c-.17.193-.409.4-.665.683-.214.24-.4.492-.56.675-.078.089-.137.107-.162.086-.041-.035-.007-.12.035-.2.3-.464.011-.69-.363-1.024-.746-.692-1.825-1.654-2.238-1.993a2.6,2.6,0,0,0-1.719-.757,2.1,2.1,0,0,0-1.444.734c-.8.9-.867,1.908.659,3.366.281.279.65.621.913.857,1.519,1.352,1.679,1.38,1.959,1.228a1.724,1.724,0,0,0,.233-.164c.065-.057.154-.078.179-.056s.019.089-.059.177c-.15.168-.294.283-.515.53-.156.176-.319.405-.489.6-.079.089-.145.129-.168.108-.041-.035-.029-.1.061-.245.229-.369.083-.528-.254-.873-.46-.465-1.523-1.413-1.99-1.9a3.933,3.933,0,0,1-1.375-2.27,2.565,2.565,0,0,1,.742-1.862,2.877,2.877,0,0,1,1.469-.927,2.8,2.8,0,0,1,2.449.936c.623.525,1.87,1.649,2.363,2.046.428.324.49.35.87.1.051-.026.125-.061.164-.025s-.032.1-.1.172" transform="translate(6.752 7.16)" fill="#032339"/><path d="M56.682,65.873c-.263.185-.74.455-1.081.7-.044.03-.1.028-.331-.043-1.094-.329-5.139-1.278-6.551-1.592-.037-.014-.071.01-.016.09.227.323,1.948,2.711,2.507,3.469.364.517.618.469.947.342.124-.048.2-.073.222-.039s-.035.118-.132.186c-.158.111-.436.254-.628.39-.254.179-.449.368-.545.436s-.152.081-.177.046.027-.11.088-.193a.63.63,0,0,0,.024-.8c-.2-.357-1.475-2.207-2.055-3.03-.56-.8-.894-1.307-1.232-1.751-.144-.186-.173-.283-.113-.326a1.042,1.042,0,0,1,.492.086c.938.27,5.012,1.263,7.16,1.806.081.021.095-.016.057-.068-.208-.3-2.2-3.186-2.487-3.589a2.279,2.279,0,0,0-.607-.659.827.827,0,0,0-.634.028c-.107.035-.187.052-.223,0s.05-.115.129-.17c.158-.11.423-.234.695-.424s.512-.426.582-.475c.132-.092.168-.078.187-.052.03.044-.027.11-.106.2-.247.319-.3.471.011,1,.2.358,2.1,3.184,2.588,3.884.364.516.486.521.608.527a1.075,1.075,0,0,0,.537-.128c.135-.069.191-.082.222-.039s0,.092-.141.191" transform="translate(5.986 7.577)" fill="#032339"/><path d="M49.626,70.148c-.317.153-.549.216-.838.356-.319.153-.6.335-.812.438-.087.042-.153.05-.168.021s0-.1.1-.156c.357-.244.307-.4.136-.8-.2-.5-.751-1.609-1.039-2.208-.682-1.416-1.092-2.218-1.25-2.5-.206-.354-.3-.393-.608-.325-.15.036-.193.02-.215-.027s.039-.09.155-.146c.153-.074.409-.161.689-.3.482-.232.737-.415.922-.5.087-.042.162-.054.186-.007.015.028-.02.081-.165.2-.32.249-.3.432-.034,1.014.25.569,1.54,3.225,1.759,3.679a9.187,9.187,0,0,0,.484.907c.193.3.306.292.672.211.077-.014.129,0,.143.026s-.035.077-.122.118" transform="translate(5.653 8.049)" fill="#032339"/><path d="M47.2,71.407c-.235.073-.677.167-.912.241-.326.1-.753.28-.937.338-.153.047-.207.02-.213,0-.019-.06.063-.119.169-.176.235-.107.306-.275.268-.4a1.586,1.586,0,0,0-.274-.44c-.354-.484-2.609-3.321-2.994-3.728-.02-.027-.061-.048-.057,0-.059.388-.3,3.815-.314,4.37a3.147,3.147,0,0,0,.045.86c.073.235.29.247.619.221.108-.011.189,0,.2.038s-.032.078-.185.125c-.225.07-.65.147-.864.215-.235.073-.5.2-.661.251-.133.042-.177.044-.187.015s.016-.1.167-.187c.356-.224.448-.466.54-1.28.06-.49.193-2.146.427-4.8.05-.665.064-1.052.056-1.217a.185.185,0,0,1,.056-.141c.062-.02.114.043.2.162.653.905,3.42,4.334,4.083,5.091a.713.713,0,0,0,.715.28c.131-.018.214,0,.227.042s-.083.092-.176.122" transform="translate(5.146 8.268)" fill="#032339"/><path d="M40.263,73.437c-.254.03-.589.028-.9.065-.563.068-2.005.262-2.432.314-.392.047-.538.087-.645.1-.043,0-.092-.054-.126-.158s-.093-.507-.161-.715c-.019-.062-.02-.159.023-.163s.068.024.135.134c.234.424.455.561.652.58.249.014,1.652-.156,1.99-.208.083-.02.124-.047.078-.429-.043-.351-.2-1.7-.294-2.433-.015-.128-.052-.167-.083-.162l-1.339.161c-.489.059-.615.095-.7.159a.933.933,0,0,0-.229.438c-.023.078-.05.125-.091.129s-.06-.047-.069-.11,0-.4,0-.571a3.2,3.2,0,0,0-.093-.592c-.05-.145.017-.217.038-.221.043-.006.06.047.155.208.043.091.141.285.306.307a11.111,11.111,0,0,0,1.974-.173c.073-.008.082-.03.061-.212-.065-.542-.277-2.025-.3-2.228a.591.591,0,0,0-.333-.444,2.538,2.538,0,0,0-1.065.02c-.892.107-1.081.152-1.27.369a5.407,5.407,0,0,0-.322.555c-.089.151-.127.2-.17.2s-.061-.068-.033-.189c.034-.253.1-.713.136-.836.034-.08.08-.14.155-.147,1.126-.136,2.33-.239,3.193-.342.36-.043.949-.168,1.066-.181.137-.017.206.007.211.05s-.066.072-.179.119a.587.587,0,0,0-.5.739c.151,1.7.292,2.864.543,4.947.072.606.215.718.608.757.108.009.165.034.171.077s-.068.073-.152.083" transform="translate(4.404 8.388)" fill="#032339"/><path d="M31.17,73.455a1.531,1.531,0,0,1-.59-1.319,1.376,1.376,0,0,1,.675-1.163,2.14,2.14,0,0,1,.628-.3c.044-.019.037-.084,0-.193-.18-.418-.733-1.447-1.047-1.967a7.13,7.13,0,0,0-.725-1.017,1.185,1.185,0,0,0-.778-.463c-.074,0-.137-.038-.135-.071s.045-.062.122-.079a1.476,1.476,0,0,1,.484-.027,1.876,1.876,0,0,1,1.522.943c.436.646,1.142,1.994,1.337,2.337.128.189.23.292.367.321a1.6,1.6,0,0,0,.448.056.138.138,0,0,0,.1-.1c.029-.128.1-1.367.111-1.773a3.748,3.748,0,0,0-.029-1.02c-.025-.131-.1-.252-.474-.339-.116-.027-.158-.061-.154-.1s.089-.07.207-.064c.191.011.51.082.905.1s.771-.01.975,0c.107.007.18.032.178.084s-.069.072-.209.086c-.357.055-.468.145-.526.581-.065.607-.135,1.461-.211,2.8-.083,1.485-.079,2.16-.077,2.525,0,.3.006.46.45.562.095.026.178.053.176.106s-.068.061-.2.053c-.15-.008-.457-.057-.831-.079-.45-.026-.741.012-1.3-.019a2.3,2.3,0,0,1-1.411-.465m2.162.25c.023-.009.055-.019.075-.2.023-.2.159-2.435.169-2.616.008-.14-.033-.184-.075-.187a.954.954,0,0,0-.256-.035,3.085,3.085,0,0,0-1.146.171,1.483,1.483,0,0,0-.666,1.173,1.678,1.678,0,0,0,.359,1.253,1.628,1.628,0,0,0,1.194.5.677.677,0,0,0,.346-.056" transform="translate(3.674 8.413)" fill="#032339"/><path d="M24.643,72.576a.14.14,0,0,1-.046-.132c.068-.281.108-.591.125-.707.01-.141.06-.206.1-.2s.061.07.054.189a1.051,1.051,0,0,0,.25.708,1.519,1.519,0,0,0,.779.472,1.3,1.3,0,0,0,1.522-.992,1.5,1.5,0,0,0-.463-1.386c-.331-.364-.608-.683-.884-1a2.029,2.029,0,0,1-.6-1.89A2.074,2.074,0,0,1,28.1,66.3a3.6,3.6,0,0,1,1.346.627.329.329,0,0,1,.11.323,6.285,6.285,0,0,1-.077.785c-.017.118-.059.2-.1.186s-.059-.08-.065-.235a1.539,1.539,0,0,0-1.261-1.5,1.392,1.392,0,0,0-1.7,1.027c-.169.708.238,1.223.868,1.9a2.576,2.576,0,0,1,.961,2.341,1.683,1.683,0,0,1-.985,1.184,2.244,2.244,0,0,1-1.442.1,4.652,4.652,0,0,1-1.121-.464" transform="translate(3.094 8.334)" fill="#032339"/><path d="M23.248,72.177c-.332-.12-.539-.241-.84-.351-.334-.12-.66-.194-.882-.275-.09-.033-.143-.074-.131-.1s.068-.065.184-.036c.423.087.5-.057.669-.462.213-.492.627-1.663.853-2.285.538-1.479.825-2.33.914-2.64.109-.394.074-.486-.191-.662-.129-.081-.149-.123-.129-.173s.091-.035.212.009c.161.059.4.181.692.286.5.185.813.239,1,.308.09.033.155.079.136.129-.011.03-.073.042-.258.02-.4-.055-.52.083-.75.684-.232.575-1.233,3.354-1.405,3.827a9.11,9.11,0,0,0-.311.981c-.08.346.006.423.319.628.063.046.093.091.082.12s-.079.029-.169,0" transform="translate(2.692 8.199)" fill="#032339"/><path d="M22.438,64.645c-.491-.174-.627-.053-.886.367-.552.883-2.538,4.637-2.589,4.779-.035.09-.023.134.006.15a6.667,6.667,0,0,0,.695.4,5.92,5.92,0,0,0,.829.378c.2.066.377.018.706-.28.108-.089.181-.11.217-.091s0,.1-.047.158a6.12,6.12,0,0,0-.547.739c-.055.08-.081.127-.137.122-.025,0-.043-.035-.051-.088s-.125-.174-.252-.254c-.146-.089-1.079-.594-2.052-1.11-.728-.386-1.617-.857-1.89-.977a1.382,1.382,0,0,0-.571-.181c-.053.008-.087,0-.086-.02a.242.242,0,0,1,.055-.129,4.817,4.817,0,0,0,.408-.7c.077-.141.149-.187.187-.168s.011.116,0,.168a1.064,1.064,0,0,0-.054.54c.043.12.145.223.808.573.294.155.767.405.928.467.052.016.1-.055.136-.122.187-.349,1.372-2.543,1.581-2.941.28-.529.874-1.717,1-2.025.132-.341.073-.458-.2-.723-.1-.089-.134-.132-.11-.18s.1-.03.224.034c.217.116.481.328.859.528.483.256.8.348.948.429.123.065.151.127.125.174s-.119.021-.233-.015" transform="translate(1.986 7.986)" fill="#032339"/><path d="M13.114,66.884a4.469,4.469,0,0,0,.321-.874c.618-2.035,1.047-3.542,1.439-5.143.172-.663.146-.8-.026-1.019-.089-.1-.106-.162-.086-.187.033-.043.122,0,.2.057.161.125.277.254.719.593.314.241.662.455.866.611.093.072.131.128.1.17s-.129.009-.221-.047c-.378-.211-.54-.1-.674.088-.095.158-.386,1.135-.671,2.1a.2.2,0,0,0,.033.188c.335.23,1.4,1.05,1.591,1.194.043.033.164-.021.251-.063.221-.128.948-.567,1.387-.893.341-.25.465-.412.444-.576a.839.839,0,0,0-.247-.418c-.065-.091-.081-.158-.062-.182.033-.043.122,0,.216.071.161.124.476.433.781.668.212.163.406.244.61.4.093.072.132.128.1.17s-.131-.006-.229-.054c-.449-.223-.584-.2-1.455.26-.651.338-2.825,1.622-4.288,2.508a.77.77,0,0,0-.234.2c-.025.035-.074.079-.1.075a.979.979,0,0,0-.638.2c-.048.03-.09.065-.133.033-.025-.019-.017-.066.006-.131m1.8-3.044c-.4,1.22-.585,1.939-.68,2.326-.027.087.01.074.081.034.575-.326,1.673-1.035,2.059-1.292.021-.01.068-.07.033-.095-.154-.134-.366-.3-.663-.525a5.015,5.015,0,0,0-.764-.533c-.024,0-.05.028-.065.084" transform="translate(1.647 7.505)" fill="#032339"/><path d="M7.845,61.358a.137.137,0,0,1,.037-.134c.215-.194.426-.424.505-.511.089-.109.167-.135.195-.1s.01.091-.063.187a1.057,1.057,0,0,0-.2.724,1.524,1.524,0,0,0,.372.831,1.3,1.3,0,0,0,1.816.052,1.5,1.5,0,0,0,.41-1.4c-.064-.489-.11-.909-.156-1.327a2.031,2.031,0,0,1,.587-1.894,2.076,2.076,0,0,1,2.912.392,3.614,3.614,0,0,1,.75,1.283.331.331,0,0,1-.093.329,6.383,6.383,0,0,1-.51.6c-.081.087-.159.128-.188.1s0-.1.081-.231a1.538,1.538,0,0,0-.184-1.95,1.392,1.392,0,0,0-1.978-.12c-.542.485-.5,1.139-.368,2.056a2.583,2.583,0,0,1-.543,2.471,1.686,1.686,0,0,1-1.485.413A2.257,2.257,0,0,1,8.5,62.379a4.668,4.668,0,0,1-.657-1.021" transform="translate(0.986 7.215)" fill="#032339"/><path d="M4.262,55.947C4.207,55.83,4,55.279,3.8,54.854c-.482-1.028-.988-2.031-1.161-2.4-.095-.2-.078-.294-.016-.335.132-.073.54-.312.652-.376.088-.065.184-.087.207-.038s-.037.1-.141.207a.868.868,0,0,0-.211.986c.116.323.312.74.725,1.621.033.069.19.077.239.054.276-.118,1.4-.621,2.5-1.163a.131.131,0,0,0,.075-.142c-.464-.987-.691-1.448-.784-1.594-.083-.127-.176-.249-.573-.24-.119,0-.172-.015-.186-.043s.02-.081.123-.117.42-.137.624-.233a5.106,5.106,0,0,0,.446-.257c.127-.059.175-.059.2-.01s-.042.114-.15.236c-.177.177-.229.32-.2.449a11.573,11.573,0,0,0,.739,1.7.21.21,0,0,0,.171.038c.179-.072,1.682-.8,2.109-1.024.364-.182.394-.268.292-.764-.017-.086-.015-.158.024-.176.059-.027.118.074.163.171.064.136.2.58.387.977.172.368.324.592.388.728.042.087.053.163,0,.186s-.09-.017-.179-.128c-.249-.332-.35-.343-.717-.195-.334.12-1.536.684-2.6,1.183-1.028.483-1.619.76-2.2,1.066-.34.182-.414.253-.337.643.021.1.025.177-.024.2s-.087-.03-.127-.118" transform="translate(0.323 6.385)" fill="#032339"/><path d="M2.044,51.332c-.092-.319-.136-.663-.216-.94-.092-.32-.216-.594-.285-.831-.036-.123-.027-.171,0-.179.052-.016.1.037.144.114.2.4.272.4.991.225.178-.039,1.127-.3,2.062-.574.976-.283,2-.59,2.193-.656a1.983,1.983,0,0,0,.771-.379c.12-.158.143-.465-.1-1.3a4.834,4.834,0,0,0-.314-.891,1.254,1.254,0,0,0-.858-.464c-.144-.036-.2-.075-.213-.117s.145-.075.295-.063c.091.008.713.039.8.06a.251.251,0,0,1,.164.186c.03.1.256.885.382,1.394s.311,1.269.415,1.629c.091.319.277.766.319.911.036.123.053.218-.01.235-.041.012-.1-.071-.135-.16-.211-.419-.372-.439-.7-.377-.422.078-1.1.274-2.52.685-1.4.4-2.1.62-2.448.741-.578.2-.63.249-.584.715.015.129-.007.17-.048.181s-.08-.044-.109-.146" transform="translate(0.191 5.698)" fill="#032339"/><path d="M3.456,39.116a3.457,3.457,0,0,1,3.308,1.708,3.486,3.486,0,0,1-2.851,5.214A3.308,3.308,0,0,1,1,44.9a3.485,3.485,0,0,1,2.458-5.78m-2.2,5.467a3.966,3.966,0,0,0,2.529.54,4.024,4.024,0,0,0,2.3-1.028,2.426,2.426,0,0,0,.905-2.046,1.7,1.7,0,0,0-.527-1.1,3.56,3.56,0,0,0-2.927-.914,4.118,4.118,0,0,0-2.5,1.133,2.3,2.3,0,0,0-.715,1.889,2.374,2.374,0,0,0,.94,1.529" transform="translate(0.017 4.921)" fill="#032339"/><path d="M.966,34.471a1.53,1.53,0,0,1,1.358-.494,1.375,1.375,0,0,1,1.111.759,2.14,2.14,0,0,1,.25.647c.016.046.081.043.194.014.429-.149,1.494-.626,2.037-.9a7.346,7.346,0,0,0,1.066-.65A1.183,1.183,0,0,0,7.5,33.1c.01-.075.05-.135.081-.131s.059.051.07.128a1.408,1.408,0,0,1-.008.484,1.877,1.877,0,0,1-1.052,1.45c-.675.387-2.07.994-2.427,1.164-.2.115-.307.208-.347.343a1.585,1.585,0,0,0-.089.441.14.14,0,0,0,.093.109c.125.038,1.355.2,1.76.239a3.684,3.684,0,0,0,1.02.046c.132-.016.259-.086.372-.449.036-.114.073-.151.115-.146s.064.095.048.212c-.025.19-.119.5-.169.9s-.047.771-.072.973c-.014.106-.045.178-.1.171s-.066-.073-.07-.214c-.029-.36-.111-.478-.542-.567-.6-.109-1.447-.241-2.773-.412-1.476-.191-2.15-.235-2.513-.26-.3-.018-.462-.028-.593.408-.034.093-.065.176-.118.169s-.056-.073-.039-.2c.019-.15.09-.453.138-.824.059-.446.043-.74.114-1.291a2.28,2.28,0,0,1,.566-1.371M.56,36.608c.008.023.014.056.193.089.2.038,2.417.335,2.6.358.137.018.186-.018.191-.061a1.034,1.034,0,0,0,.054-.252,3.124,3.124,0,0,0-.088-1.155,1.476,1.476,0,0,0-1.122-.75A1.671,1.671,0,0,0,1.11,35.1a1.621,1.621,0,0,0-.581,1.155.681.681,0,0,0,.03.349" transform="translate(0.018 4.15)" fill="#032339"/><path d="M1.239,31.287c.08-.244.224-.546.32-.841.177-.539.609-1.93.742-2.336.123-.376.15-.526.182-.627.014-.041.088-.062.2-.048s.5.129.715.154c.064.011.153.051.14.092s-.051.05-.179.065c-.483.033-.7.176-.8.346-.117.221-.556,1.563-.652,1.892-.017.084-.01.132.357.251L4.588,31c.122.041.172.024.182-.007l.419-1.282c.154-.467.172-.6.152-.7a.921.921,0,0,0-.3-.39c-.061-.054-.091-.1-.078-.14s.066-.034.128-.014.363.164.519.238a3.207,3.207,0,0,0,.576.165c.152.016.19.108.184.128-.015.039-.069.034-.253.052-.1,0-.319.009-.41.147a11.438,11.438,0,0,0-.677,1.861c-.023.072-.006.089.167.145.52.17,1.953.6,2.146.668a.59.59,0,0,0,.545-.115,2.514,2.514,0,0,0,.431-.973c.28-.854.319-1.045.2-1.308a5.251,5.251,0,0,0-.368-.525c-.1-.146-.127-.2-.114-.24s.088-.028.186.05c.215.137.606.39.7.476a.2.2,0,0,1,.069.2c-.352,1.079-.769,2.214-1.038,3.039-.114.346-.249.931-.285,1.044-.044.132-.095.184-.135.17s-.037-.091-.032-.213a.588.588,0,0,0-.458-.769c-1.6-.58-2.719-.947-4.713-1.6-.58-.19-.742-.109-.942.231-.054.095-.1.136-.142.123s-.037-.091-.011-.172" transform="translate(0.154 3.452)" fill="#032339"/><path d="M3.041,26.215c.159-.279.475-.727.681-1.09.027-.046.075-.068.319-.1,1.129-.169,5.192-1.032,6.6-1.35.038,0,.06-.039-.024-.088-.344-.2-2.918-1.623-3.747-2.07-.548-.313-.759-.162-1,.093-.091.1-.146.151-.185.129s-.017-.12.042-.223c.095-.168.286-.417.4-.62.153-.27.25-.524.307-.626s.1-.138.141-.117.023.111,0,.211a.627.627,0,0,0,.32.736c.332.239,2.275,1.37,3.149,1.867.847.482,1.366.8,1.86,1.058.211.108.278.184.241.249a1.05,1.05,0,0,1-.482.132c-.961.155-5.072.992-7.246,1.416-.082.015-.08.053-.025.084.317.18,3.352,1.944,3.779,2.189a2.252,2.252,0,0,0,.831.337.825.825,0,0,0,.562-.295c.081-.078.145-.126.2-.095s0,.125-.045.208c-.1.168-.285.392-.448.68s-.283.6-.324.678c-.08.14-.119.143-.146.127-.047-.027-.023-.113.008-.231.088-.392.068-.552-.436-.9-.332-.239-3.252-1.987-4-2.41-.549-.312-.662-.266-.775-.218a1.084,1.084,0,0,0-.431.346c-.091.119-.137.155-.184.128s-.038-.083.046-.232" transform="translate(0.374 2.536)" fill="#032339"/><path d="M13.151,22.554c.289-.431.2-.593-.14-.948-.721-.751-3.874-3.6-4-3.681-.079-.056-.124-.054-.145-.03a6.293,6.293,0,0,0-.562.574,5.988,5.988,0,0,0-.57.712c-.113.172-.11.361.1.753.059.126.064.2.035.233s-.092-.026-.141-.084a6.015,6.015,0,0,0-.583-.713c-.064-.072-.1-.108-.083-.162.007-.024.044-.033.1-.028A.591.591,0,0,0,7.468,19c.122-.12.84-.9,1.578-1.718.553-.612,1.226-1.36,1.411-1.6a1.377,1.377,0,0,0,.314-.509c.006-.053.019-.083.042-.078a.245.245,0,0,1,.111.086,5.038,5.038,0,0,0,.582.569c.119.108.146.19.117.222s-.115-.017-.161-.045a1.106,1.106,0,0,0-.51-.187c-.128.015-.253.09-.755.645-.222.247-.58.645-.679.786-.027.047.028.113.084.162.294.266,2.131,1.951,2.464,2.253.445.4,1.451,1.267,1.719,1.465.3.212.427.184.749-.016.11-.073.163-.1.2-.063s.006.106-.087.209c-.165.184-.435.386-.722.7-.366.405-.534.687-.648.813-.093.1-.16.115-.2.08s.009-.123.072-.224" transform="translate(0.888 1.9)" fill="#032339"/><path d="M11.6,14.383c.271-.226.48-.345.726-.551.271-.225.5-.471.68-.621.073-.061.136-.087.156-.061s.023.092-.061.176c-.288.323-.2.46.063.811.317.432,1.12,1.379,1.546,1.889,1.008,1.208,1.6,1.885,1.822,2.118.285.292.382.307.668.167.136-.072.181-.066.216-.026s-.016.1-.115.179c-.132.11-.358.257-.6.456-.411.342-.616.582-.772.712-.073.062-.145.093-.179.053-.02-.025,0-.084.113-.233.249-.319.189-.492-.215-.992-.381-.491-2.28-2.753-2.6-3.139a8.789,8.789,0,0,0-.69-.761c-.258-.244-.368-.208-.7-.042-.071.032-.125.035-.145.01s.016-.082.089-.144" transform="translate(1.447 1.654)" fill="#032339"/><path d="M14.18,12.42c.277-.162.776-.391,1.136-.6.046-.027.1-.02.325.07,1.064.42,5.012,1.71,6.394,2.144.035.016.071-.006.023-.089-.2-.341-1.71-2.867-2.2-3.67-.319-.545-.576-.519-.914-.42-.128.037-.2.055-.225.019s.046-.114.147-.172c.167-.1.456-.217.66-.335.268-.156.477-.328.579-.387s.159-.069.18-.032-.036.108-.1.185a.627.627,0,0,0-.092.8c.168.373,1.281,2.325,1.789,3.194.491.84.78,1.378,1.08,1.847.127.2.147.3.083.335a1.036,1.036,0,0,1-.483-.127c-.91-.349-4.886-1.683-6.98-2.406-.079-.029-.1.006-.064.062.184.314,1.925,3.362,2.174,3.787a2.262,2.262,0,0,0,.549.707.827.827,0,0,0,.635.026c.108-.026.189-.036.222.02s-.061.109-.144.158c-.165.1-.442.2-.728.364s-.546.381-.62.423c-.138.081-.173.064-.19.037-.027-.047.037-.108.123-.195.272-.3.335-.445.074-1-.168-.373-1.818-3.349-2.251-4.089-.319-.545-.44-.562-.56-.578a1.087,1.087,0,0,0-.547.083c-.141.056-.2.066-.224.019s.008-.091.156-.178" transform="translate(1.764 1.124)" fill="#032339"/><path d="M23.906,7.418a4.51,4.51,0,0,0,.536.761c1.321,1.667,2.317,2.876,3.409,4.111.447.519.579.578.853.557.128-.019.193.006.2.036.017.052-.069.1-.16.131-.194.062-.367.083-.9.253-.376.122-.751.286-1,.365-.111.035-.18.034-.2-.016s.066-.111.165-.154c.387-.191.393-.385.311-.606-.075-.167-.713-.963-1.346-1.748a.2.2,0,0,0-.171-.08c-.382.145-1.665.556-1.89.628-.051.016-.077.147-.09.243-.019.253-.073,1.1-.056,1.647.011.423.074.617.222.694a.843.843,0,0,0,.484.035c.111,0,.176.023.186.053.016.052-.069.1-.182.137-.193.062-.627.144-.994.263-.254.081-.431.194-.677.271-.111.037-.179.036-.2-.015s.079-.1.175-.158c.44-.242.5-.363.615-1.343.092-.726.275-3.246.378-4.954a.749.749,0,0,0-.03-.305c-.012-.041-.023-.1-.006-.122a.981.981,0,0,0,.2-.637c0-.059,0-.113.05-.128.03-.01.063.025.1.079m1.479,3.212c-.777-1.021-1.261-1.585-1.525-1.882-.056-.071-.066-.034-.074.047-.059.659-.1,1.965-.109,2.428,0,.023.019.095.06.081.2-.052.451-.133.808-.248a5.043,5.043,0,0,0,.874-.325c.017-.017,0-.056-.033-.1" transform="translate(2.821 0.924)" fill="#032339"/></g></g></svg>